<mxfile host="65bd71144e" pages="17">
    <diagram id="XFdqZciJXg9_fojrksok" name="00 - mocks">
        <mxGraphModel dx="1542" dy="648" grid="1" gridSize="10" guides="1" tooltips="1" connect="1" arrows="1" fold="1" page="1" pageScale="1" pageWidth="1920" pageHeight="1200" math="0" shadow="0">
            <root>
                <mxCell id="zg0N6jhoSCdf45vJxAEY-0"/>
                <mxCell id="zg0N6jhoSCdf45vJxAEY-1" parent="zg0N6jhoSCdf45vJxAEY-0"/>
                <mxCell id="zg0N6jhoSCdf45vJxAEY-2" value="" style="strokeWidth=1;shadow=0;dashed=0;align=center;html=1;shape=mxgraph.mockup.containers.browserWindow;rSize=0;strokeColor=#666666;strokeColor2=#008cff;strokeColor3=#c4c4c4;mainText=,;recursiveResize=0;" parent="zg0N6jhoSCdf45vJxAEY-1" vertex="1">
                    <mxGeometry x="540" y="330" width="370" height="380" as="geometry"/>
                </mxCell>
                <mxCell id="zg0N6jhoSCdf45vJxAEY-3" value="Page 1" style="strokeWidth=1;shadow=0;dashed=0;align=center;html=1;shape=mxgraph.mockup.containers.anchor;fontSize=17;fontColor=#666666;align=left;" parent="zg0N6jhoSCdf45vJxAEY-2" vertex="1">
                    <mxGeometry x="60" y="12" width="110" height="26" as="geometry"/>
                </mxCell>
                <mxCell id="zg0N6jhoSCdf45vJxAEY-4" value="" style="strokeWidth=1;shadow=0;dashed=0;align=center;html=1;shape=mxgraph.mockup.containers.anchor;rSize=0;fontSize=17;fontColor=#666666;align=left;" parent="zg0N6jhoSCdf45vJxAEY-2" vertex="1">
                    <mxGeometry x="130" y="60" width="250" height="26" as="geometry"/>
                </mxCell>
                <mxCell id="zg0N6jhoSCdf45vJxAEY-5" value="" style="rounded=0;whiteSpace=wrap;html=1;" parent="zg0N6jhoSCdf45vJxAEY-2" vertex="1">
                    <mxGeometry y="110" width="370" height="40" as="geometry"/>
                </mxCell>
                <mxCell id="zg0N6jhoSCdf45vJxAEY-6" value="App" style="text;html=1;strokeColor=none;fillColor=none;align=center;verticalAlign=middle;whiteSpace=wrap;rounded=0;" parent="zg0N6jhoSCdf45vJxAEY-2" vertex="1">
                    <mxGeometry x="20" y="120" width="40" height="20" as="geometry"/>
                </mxCell>
                <mxCell id="zg0N6jhoSCdf45vJxAEY-7" value="Login" style="text;html=1;strokeColor=none;fillColor=none;align=center;verticalAlign=middle;whiteSpace=wrap;rounded=0;" parent="zg0N6jhoSCdf45vJxAEY-2" vertex="1">
                    <mxGeometry x="317.5" y="120" width="40" height="20" as="geometry"/>
                </mxCell>
                <mxCell id="zg0N6jhoSCdf45vJxAEY-8" value="Welcome" style="text;html=1;strokeColor=none;fillColor=none;align=center;verticalAlign=middle;whiteSpace=wrap;rounded=0;fontSize=23;" parent="zg0N6jhoSCdf45vJxAEY-2" vertex="1">
                    <mxGeometry x="165" y="180" width="40" height="20" as="geometry"/>
                </mxCell>
                <mxCell id="zg0N6jhoSCdf45vJxAEY-9" value="See pricing" style="rounded=1;whiteSpace=wrap;html=1;" parent="zg0N6jhoSCdf45vJxAEY-2" vertex="1">
                    <mxGeometry x="122.5" y="280" width="125" height="30" as="geometry"/>
                </mxCell>
                <mxCell id="zg0N6jhoSCdf45vJxAEY-10" value="app.com/" style="text;html=1;strokeColor=none;fillColor=none;align=left;verticalAlign=middle;whiteSpace=wrap;rounded=0;fontSize=14;fontStyle=1" parent="zg0N6jhoSCdf45vJxAEY-2" vertex="1">
                    <mxGeometry x="130" y="63" width="150" height="20" as="geometry"/>
                </mxCell>
                <mxCell id="zg0N6jhoSCdf45vJxAEY-11" value="Use our awesome dashboard" style="text;html=1;strokeColor=none;fillColor=none;align=center;verticalAlign=middle;whiteSpace=wrap;rounded=0;fontSize=23;" parent="zg0N6jhoSCdf45vJxAEY-2" vertex="1">
                    <mxGeometry x="82.5" y="220" width="205" height="20" as="geometry"/>
                </mxCell>
                <mxCell id="zg0N6jhoSCdf45vJxAEY-12" value="" style="strokeWidth=1;shadow=0;dashed=0;align=center;html=1;shape=mxgraph.mockup.containers.browserWindow;rSize=0;strokeColor=#666666;strokeColor2=#008cff;strokeColor3=#c4c4c4;mainText=,;recursiveResize=0;" parent="zg0N6jhoSCdf45vJxAEY-1" vertex="1">
                    <mxGeometry x="960" y="330" width="370" height="380" as="geometry"/>
                </mxCell>
                <mxCell id="zg0N6jhoSCdf45vJxAEY-13" value="Page 1" style="strokeWidth=1;shadow=0;dashed=0;align=center;html=1;shape=mxgraph.mockup.containers.anchor;fontSize=17;fontColor=#666666;align=left;" parent="zg0N6jhoSCdf45vJxAEY-12" vertex="1">
                    <mxGeometry x="60" y="12" width="110" height="26" as="geometry"/>
                </mxCell>
                <mxCell id="zg0N6jhoSCdf45vJxAEY-14" value="" style="strokeWidth=1;shadow=0;dashed=0;align=center;html=1;shape=mxgraph.mockup.containers.anchor;rSize=0;fontSize=17;fontColor=#666666;align=left;" parent="zg0N6jhoSCdf45vJxAEY-12" vertex="1">
                    <mxGeometry x="130" y="60" width="250" height="26" as="geometry"/>
                </mxCell>
                <mxCell id="zg0N6jhoSCdf45vJxAEY-15" value="" style="rounded=0;whiteSpace=wrap;html=1;" parent="zg0N6jhoSCdf45vJxAEY-12" vertex="1">
                    <mxGeometry y="110" width="370" height="40" as="geometry"/>
                </mxCell>
                <mxCell id="zg0N6jhoSCdf45vJxAEY-16" value="App" style="text;html=1;strokeColor=none;fillColor=none;align=center;verticalAlign=middle;whiteSpace=wrap;rounded=0;" parent="zg0N6jhoSCdf45vJxAEY-12" vertex="1">
                    <mxGeometry x="20" y="120" width="40" height="20" as="geometry"/>
                </mxCell>
                <mxCell id="zg0N6jhoSCdf45vJxAEY-17" value="Login" style="text;html=1;strokeColor=none;fillColor=none;align=center;verticalAlign=middle;whiteSpace=wrap;rounded=0;" parent="zg0N6jhoSCdf45vJxAEY-12" vertex="1">
                    <mxGeometry x="317.5" y="120" width="40" height="20" as="geometry"/>
                </mxCell>
                <mxCell id="zg0N6jhoSCdf45vJxAEY-18" value="Pricing" style="text;html=1;strokeColor=none;fillColor=none;align=center;verticalAlign=middle;whiteSpace=wrap;rounded=0;fontSize=23;" parent="zg0N6jhoSCdf45vJxAEY-12" vertex="1">
                    <mxGeometry x="165" y="180" width="40" height="20" as="geometry"/>
                </mxCell>
                <mxCell id="zg0N6jhoSCdf45vJxAEY-19" value="" style="rounded=0;whiteSpace=wrap;html=1;fontSize=14;" parent="zg0N6jhoSCdf45vJxAEY-12" vertex="1">
                    <mxGeometry x="50" y="220" width="120" height="100" as="geometry"/>
                </mxCell>
                <mxCell id="zg0N6jhoSCdf45vJxAEY-20" value="Free" style="text;html=1;strokeColor=none;fillColor=none;align=center;verticalAlign=middle;whiteSpace=wrap;rounded=0;fontSize=17;" parent="zg0N6jhoSCdf45vJxAEY-12" vertex="1">
                    <mxGeometry x="90" y="230" width="40" height="20" as="geometry"/>
                </mxCell>
                <mxCell id="zg0N6jhoSCdf45vJxAEY-21" value="Sign Up" style="rounded=1;whiteSpace=wrap;html=1;fontSize=14;" parent="zg0N6jhoSCdf45vJxAEY-12" vertex="1">
                    <mxGeometry x="62.5" y="280" width="95" height="30" as="geometry"/>
                </mxCell>
                <mxCell id="zg0N6jhoSCdf45vJxAEY-22" value="" style="rounded=0;whiteSpace=wrap;html=1;fontSize=14;" parent="zg0N6jhoSCdf45vJxAEY-12" vertex="1">
                    <mxGeometry x="205" y="220" width="120" height="100" as="geometry"/>
                </mxCell>
                <mxCell id="zg0N6jhoSCdf45vJxAEY-23" value="$30/month" style="text;html=1;strokeColor=none;fillColor=none;align=center;verticalAlign=middle;whiteSpace=wrap;rounded=0;fontSize=17;" parent="zg0N6jhoSCdf45vJxAEY-12" vertex="1">
                    <mxGeometry x="245" y="230" width="40" height="20" as="geometry"/>
                </mxCell>
                <mxCell id="zg0N6jhoSCdf45vJxAEY-24" value="Sign Up" style="rounded=1;whiteSpace=wrap;html=1;fontSize=14;" parent="zg0N6jhoSCdf45vJxAEY-12" vertex="1">
                    <mxGeometry x="217.5" y="280" width="95" height="30" as="geometry"/>
                </mxCell>
                <mxCell id="zg0N6jhoSCdf45vJxAEY-25" value="app.com/pricing" style="text;html=1;strokeColor=none;fillColor=none;align=left;verticalAlign=middle;whiteSpace=wrap;rounded=0;fontSize=14;fontStyle=1" parent="zg0N6jhoSCdf45vJxAEY-12" vertex="1">
                    <mxGeometry x="130" y="63" width="150" height="20" as="geometry"/>
                </mxCell>
                <mxCell id="zg0N6jhoSCdf45vJxAEY-26" value="" style="strokeWidth=1;shadow=0;dashed=0;align=center;html=1;shape=mxgraph.mockup.containers.browserWindow;rSize=0;strokeColor=#666666;strokeColor2=#008cff;strokeColor3=#c4c4c4;mainText=,;recursiveResize=0;" parent="zg0N6jhoSCdf45vJxAEY-1" vertex="1">
                    <mxGeometry x="1380" y="330" width="370" height="380" as="geometry"/>
                </mxCell>
                <mxCell id="zg0N6jhoSCdf45vJxAEY-27" value="Page 1" style="strokeWidth=1;shadow=0;dashed=0;align=center;html=1;shape=mxgraph.mockup.containers.anchor;fontSize=17;fontColor=#666666;align=left;" parent="zg0N6jhoSCdf45vJxAEY-26" vertex="1">
                    <mxGeometry x="60" y="12" width="110" height="26" as="geometry"/>
                </mxCell>
                <mxCell id="zg0N6jhoSCdf45vJxAEY-28" value="" style="strokeWidth=1;shadow=0;dashed=0;align=center;html=1;shape=mxgraph.mockup.containers.anchor;rSize=0;fontSize=17;fontColor=#666666;align=left;" parent="zg0N6jhoSCdf45vJxAEY-26" vertex="1">
                    <mxGeometry x="130" y="60" width="250" height="26" as="geometry"/>
                </mxCell>
                <mxCell id="zg0N6jhoSCdf45vJxAEY-29" value="" style="rounded=0;whiteSpace=wrap;html=1;" parent="zg0N6jhoSCdf45vJxAEY-26" vertex="1">
                    <mxGeometry y="110" width="370" height="40" as="geometry"/>
                </mxCell>
                <mxCell id="zg0N6jhoSCdf45vJxAEY-30" value="App" style="text;html=1;strokeColor=none;fillColor=none;align=center;verticalAlign=middle;whiteSpace=wrap;rounded=0;" parent="zg0N6jhoSCdf45vJxAEY-26" vertex="1">
                    <mxGeometry x="20" y="120" width="40" height="20" as="geometry"/>
                </mxCell>
                <mxCell id="zg0N6jhoSCdf45vJxAEY-31" value="Login" style="text;html=1;strokeColor=none;fillColor=none;align=center;verticalAlign=middle;whiteSpace=wrap;rounded=0;" parent="zg0N6jhoSCdf45vJxAEY-26" vertex="1">
                    <mxGeometry x="317.5" y="120" width="40" height="20" as="geometry"/>
                </mxCell>
                <mxCell id="zg0N6jhoSCdf45vJxAEY-32" value="Sign In" style="text;html=1;strokeColor=none;fillColor=none;align=center;verticalAlign=middle;whiteSpace=wrap;rounded=0;fontSize=23;" parent="zg0N6jhoSCdf45vJxAEY-26" vertex="1">
                    <mxGeometry x="142.5" y="170" width="85" height="20" as="geometry"/>
                </mxCell>
                <mxCell id="zg0N6jhoSCdf45vJxAEY-33" value="app.com/auth/signin" style="text;html=1;strokeColor=none;fillColor=none;align=left;verticalAlign=middle;whiteSpace=wrap;rounded=0;fontSize=14;fontStyle=1" parent="zg0N6jhoSCdf45vJxAEY-26" vertex="1">
                    <mxGeometry x="130" y="63" width="150" height="20" as="geometry"/>
                </mxCell>
                <mxCell id="zg0N6jhoSCdf45vJxAEY-34" value="&lt;i style=&quot;font-size: 11px;&quot;&gt;Enter Email&lt;/i&gt;" style="rounded=0;whiteSpace=wrap;html=1;fontSize=11;align=left;spacingLeft=10;fontColor=#919191;" parent="zg0N6jhoSCdf45vJxAEY-26" vertex="1">
                    <mxGeometry x="89" y="210" width="192" height="25" as="geometry"/>
                </mxCell>
                <mxCell id="zg0N6jhoSCdf45vJxAEY-35" value="&lt;i style=&quot;font-size: 11px&quot;&gt;Enter Password&lt;/i&gt;" style="rounded=0;whiteSpace=wrap;html=1;fontSize=11;align=left;spacingLeft=10;fontColor=#919191;" parent="zg0N6jhoSCdf45vJxAEY-26" vertex="1">
                    <mxGeometry x="88" y="245" width="192" height="25" as="geometry"/>
                </mxCell>
                <mxCell id="zg0N6jhoSCdf45vJxAEY-36" value="Sign In" style="rounded=1;whiteSpace=wrap;html=1;fontSize=11;align=center;" parent="zg0N6jhoSCdf45vJxAEY-26" vertex="1">
                    <mxGeometry x="124" y="280" width="120" height="30" as="geometry"/>
                </mxCell>
                <mxCell id="zg0N6jhoSCdf45vJxAEY-37" value="" style="strokeWidth=1;shadow=0;dashed=0;align=center;html=1;shape=mxgraph.mockup.containers.browserWindow;rSize=0;strokeColor=#666666;strokeColor2=#008cff;strokeColor3=#c4c4c4;mainText=,;recursiveResize=0;" parent="zg0N6jhoSCdf45vJxAEY-1" vertex="1">
                    <mxGeometry x="1810" y="330" width="370" height="380" as="geometry"/>
                </mxCell>
                <mxCell id="zg0N6jhoSCdf45vJxAEY-38" value="Page 1" style="strokeWidth=1;shadow=0;dashed=0;align=center;html=1;shape=mxgraph.mockup.containers.anchor;fontSize=17;fontColor=#666666;align=left;" parent="zg0N6jhoSCdf45vJxAEY-37" vertex="1">
                    <mxGeometry x="60" y="12" width="110" height="26" as="geometry"/>
                </mxCell>
                <mxCell id="zg0N6jhoSCdf45vJxAEY-39" value="" style="strokeWidth=1;shadow=0;dashed=0;align=center;html=1;shape=mxgraph.mockup.containers.anchor;rSize=0;fontSize=17;fontColor=#666666;align=left;" parent="zg0N6jhoSCdf45vJxAEY-37" vertex="1">
                    <mxGeometry x="130" y="60" width="250" height="26" as="geometry"/>
                </mxCell>
                <mxCell id="zg0N6jhoSCdf45vJxAEY-40" value="" style="rounded=0;whiteSpace=wrap;html=1;" parent="zg0N6jhoSCdf45vJxAEY-37" vertex="1">
                    <mxGeometry y="110" width="370" height="40" as="geometry"/>
                </mxCell>
                <mxCell id="zg0N6jhoSCdf45vJxAEY-41" value="App" style="text;html=1;strokeColor=none;fillColor=none;align=center;verticalAlign=middle;whiteSpace=wrap;rounded=0;" parent="zg0N6jhoSCdf45vJxAEY-37" vertex="1">
                    <mxGeometry x="20" y="120" width="40" height="20" as="geometry"/>
                </mxCell>
                <mxCell id="zg0N6jhoSCdf45vJxAEY-42" value="Login" style="text;html=1;strokeColor=none;fillColor=none;align=center;verticalAlign=middle;whiteSpace=wrap;rounded=0;" parent="zg0N6jhoSCdf45vJxAEY-37" vertex="1">
                    <mxGeometry x="317.5" y="120" width="40" height="20" as="geometry"/>
                </mxCell>
                <mxCell id="zg0N6jhoSCdf45vJxAEY-43" value="Sign Up" style="text;html=1;strokeColor=none;fillColor=none;align=center;verticalAlign=middle;whiteSpace=wrap;rounded=0;fontSize=23;" parent="zg0N6jhoSCdf45vJxAEY-37" vertex="1">
                    <mxGeometry x="142.5" y="170" width="85" height="20" as="geometry"/>
                </mxCell>
                <mxCell id="zg0N6jhoSCdf45vJxAEY-44" value="app.com/auth/signup" style="text;html=1;strokeColor=none;fillColor=none;align=left;verticalAlign=middle;whiteSpace=wrap;rounded=0;fontSize=14;fontStyle=1" parent="zg0N6jhoSCdf45vJxAEY-37" vertex="1">
                    <mxGeometry x="130" y="63" width="150" height="20" as="geometry"/>
                </mxCell>
                <mxCell id="zg0N6jhoSCdf45vJxAEY-45" value="&lt;i style=&quot;font-size: 11px;&quot;&gt;Enter Email&lt;/i&gt;" style="rounded=0;whiteSpace=wrap;html=1;fontSize=11;align=left;spacingLeft=10;fontColor=#919191;" parent="zg0N6jhoSCdf45vJxAEY-37" vertex="1">
                    <mxGeometry x="89" y="210" width="192" height="25" as="geometry"/>
                </mxCell>
                <mxCell id="zg0N6jhoSCdf45vJxAEY-46" value="&lt;i style=&quot;font-size: 11px&quot;&gt;Enter Password&lt;/i&gt;" style="rounded=0;whiteSpace=wrap;html=1;fontSize=11;align=left;spacingLeft=10;fontColor=#919191;" parent="zg0N6jhoSCdf45vJxAEY-37" vertex="1">
                    <mxGeometry x="88" y="245" width="192" height="25" as="geometry"/>
                </mxCell>
                <mxCell id="zg0N6jhoSCdf45vJxAEY-47" value="Sign Up" style="rounded=1;whiteSpace=wrap;html=1;fontSize=11;align=center;" parent="zg0N6jhoSCdf45vJxAEY-37" vertex="1">
                    <mxGeometry x="124" y="320" width="120" height="30" as="geometry"/>
                </mxCell>
                <mxCell id="zg0N6jhoSCdf45vJxAEY-48" value="&lt;i style=&quot;font-size: 11px&quot;&gt;Enter Password Again&lt;/i&gt;" style="rounded=0;whiteSpace=wrap;html=1;fontSize=11;align=left;spacingLeft=10;fontColor=#919191;" parent="zg0N6jhoSCdf45vJxAEY-37" vertex="1">
                    <mxGeometry x="88" y="280" width="192" height="25" as="geometry"/>
                </mxCell>
                <mxCell id="zg0N6jhoSCdf45vJxAEY-49" value="" style="strokeWidth=1;shadow=0;dashed=0;align=center;html=1;shape=mxgraph.mockup.containers.browserWindow;rSize=0;strokeColor=#666666;strokeColor2=#008cff;strokeColor3=#c4c4c4;mainText=,;recursiveResize=0;" parent="zg0N6jhoSCdf45vJxAEY-1" vertex="1">
                    <mxGeometry x="2230" y="330" width="370" height="380" as="geometry"/>
                </mxCell>
                <mxCell id="zg0N6jhoSCdf45vJxAEY-50" value="Page 1" style="strokeWidth=1;shadow=0;dashed=0;align=center;html=1;shape=mxgraph.mockup.containers.anchor;fontSize=17;fontColor=#666666;align=left;" parent="zg0N6jhoSCdf45vJxAEY-49" vertex="1">
                    <mxGeometry x="60" y="12" width="110" height="26" as="geometry"/>
                </mxCell>
                <mxCell id="zg0N6jhoSCdf45vJxAEY-51" value="" style="strokeWidth=1;shadow=0;dashed=0;align=center;html=1;shape=mxgraph.mockup.containers.anchor;rSize=0;fontSize=17;fontColor=#666666;align=left;" parent="zg0N6jhoSCdf45vJxAEY-49" vertex="1">
                    <mxGeometry x="130" y="60" width="250" height="26" as="geometry"/>
                </mxCell>
                <mxCell id="zg0N6jhoSCdf45vJxAEY-52" value="" style="rounded=0;whiteSpace=wrap;html=1;" parent="zg0N6jhoSCdf45vJxAEY-49" vertex="1">
                    <mxGeometry y="110" width="370" height="40" as="geometry"/>
                </mxCell>
                <mxCell id="zg0N6jhoSCdf45vJxAEY-53" value="App" style="text;html=1;strokeColor=none;fillColor=none;align=center;verticalAlign=middle;whiteSpace=wrap;rounded=0;" parent="zg0N6jhoSCdf45vJxAEY-49" vertex="1">
                    <mxGeometry x="20" y="120" width="40" height="20" as="geometry"/>
                </mxCell>
                <mxCell id="zg0N6jhoSCdf45vJxAEY-54" value="Logout" style="text;html=1;strokeColor=none;fillColor=none;align=center;verticalAlign=middle;whiteSpace=wrap;rounded=0;" parent="zg0N6jhoSCdf45vJxAEY-49" vertex="1">
                    <mxGeometry x="317.5" y="120" width="40" height="20" as="geometry"/>
                </mxCell>
                <mxCell id="zg0N6jhoSCdf45vJxAEY-55" value="app.com/dashboard" style="text;html=1;strokeColor=none;fillColor=none;align=left;verticalAlign=middle;whiteSpace=wrap;rounded=0;fontSize=14;fontStyle=1" parent="zg0N6jhoSCdf45vJxAEY-49" vertex="1">
                    <mxGeometry x="130" y="63" width="150" height="20" as="geometry"/>
                </mxCell>
                <mxCell id="zg0N6jhoSCdf45vJxAEY-56" value="Pretty charts and tables" style="ellipse;shape=cloud;whiteSpace=wrap;html=1;fontSize=15;fontColor=#333333;align=center;fontStyle=2;fillColor=#f5f5f5;strokeColor=#666666;" parent="zg0N6jhoSCdf45vJxAEY-49" vertex="1">
                    <mxGeometry x="20" y="200" width="320" height="100" as="geometry"/>
                </mxCell>
                <mxCell id="zg0N6jhoSCdf45vJxAEY-57" value="Home Page" style="rounded=0;whiteSpace=wrap;html=1;fontSize=23;align=center;fillColor=#dae8fc;strokeColor=#6c8ebf;fontStyle=1" parent="zg0N6jhoSCdf45vJxAEY-1" vertex="1">
                    <mxGeometry x="620" y="270" width="210" height="50" as="geometry"/>
                </mxCell>
                <mxCell id="zg0N6jhoSCdf45vJxAEY-58" value="Pricing Page" style="rounded=0;whiteSpace=wrap;html=1;fontSize=23;align=center;fillColor=#dae8fc;strokeColor=#6c8ebf;fontStyle=1" parent="zg0N6jhoSCdf45vJxAEY-1" vertex="1">
                    <mxGeometry x="1040" y="270" width="210" height="50" as="geometry"/>
                </mxCell>
                <mxCell id="zg0N6jhoSCdf45vJxAEY-59" value="Sign In Page" style="rounded=0;whiteSpace=wrap;html=1;fontSize=23;align=center;fillColor=#dae8fc;strokeColor=#6c8ebf;fontStyle=1" parent="zg0N6jhoSCdf45vJxAEY-1" vertex="1">
                    <mxGeometry x="1460" y="270" width="210" height="50" as="geometry"/>
                </mxCell>
                <mxCell id="zg0N6jhoSCdf45vJxAEY-60" value="Sign Up Page" style="rounded=0;whiteSpace=wrap;html=1;fontSize=23;align=center;fillColor=#dae8fc;strokeColor=#6c8ebf;fontStyle=1" parent="zg0N6jhoSCdf45vJxAEY-1" vertex="1">
                    <mxGeometry x="1890" y="270" width="210" height="50" as="geometry"/>
                </mxCell>
                <mxCell id="zg0N6jhoSCdf45vJxAEY-61" value="Dashboard Page" style="rounded=0;whiteSpace=wrap;html=1;fontSize=23;align=center;fillColor=#dae8fc;strokeColor=#6c8ebf;fontStyle=1" parent="zg0N6jhoSCdf45vJxAEY-1" vertex="1">
                    <mxGeometry x="2310" y="270" width="210" height="50" as="geometry"/>
                </mxCell>
            </root>
        </mxGraphModel>
    </diagram>
    <diagram id="DmbuRl_cwHplRYa3Xa1A" name="01 - disc">
        <mxGraphModel dx="1542" dy="648" grid="1" gridSize="10" guides="1" tooltips="1" connect="1" arrows="1" fold="1" page="1" pageScale="1" pageWidth="1920" pageHeight="1200" math="0" shadow="0">
            <root>
                <mxCell id="0"/>
                <mxCell id="1" parent="0"/>
                <mxCell id="tCb49M287S2d03q9579Z-1" value="Navigation + Routing" style="rounded=0;whiteSpace=wrap;html=1;fontStyle=1;fillColor=#dae8fc;strokeColor=#6c8ebf;fontSize=18;" parent="1" vertex="1">
                    <mxGeometry x="560" y="220" width="470" height="40" as="geometry"/>
                </mxCell>
                <mxCell id="tCb49M287S2d03q9579Z-2" value="Lot of lecturing required, I recommend increasing video playback speed to 1.25x or 1.5x if you haven't already" style="rounded=0;whiteSpace=wrap;html=1;fontStyle=0;fontSize=12;" parent="1" vertex="1">
                    <mxGeometry x="560" y="270" width="470" height="40" as="geometry"/>
                </mxCell>
                <mxCell id="tCb49M287S2d03q9579Z-3" value="I assume you're familiar with the basics of routing (we want to show different content at different routes, etc)" style="rounded=0;whiteSpace=wrap;html=1;fontStyle=0;fontSize=12;" parent="1" vertex="1">
                    <mxGeometry x="560" y="320" width="470" height="40" as="geometry"/>
                </mxCell>
                <mxCell id="tCb49M287S2d03q9579Z-4" value="Incredible number of ways to approach this in a microfrontend app - we again need to &lt;b&gt;define requirements&lt;/b&gt;" style="rounded=0;whiteSpace=wrap;html=1;fontStyle=0;fontSize=12;" parent="1" vertex="1">
                    <mxGeometry x="560" y="420" width="470" height="40" as="geometry"/>
                </mxCell>
                <mxCell id="tCb49M287S2d03q9579Z-6" value="Can't show you every variation of routing libraries - we're going to focus on the details of one single implementation" style="rounded=0;whiteSpace=wrap;html=1;fontStyle=0;fontSize=12;" parent="1" vertex="1">
                    <mxGeometry x="560" y="370" width="470" height="40" as="geometry"/>
                </mxCell>
            </root>
        </mxGraphModel>
    </diagram>
    <diagram id="MlHexRTwmsr95yl1zhrQ" name="02 - req">
        <mxGraphModel dx="1542" dy="648" grid="1" gridSize="10" guides="1" tooltips="1" connect="1" arrows="1" fold="1" page="1" pageScale="1" pageWidth="1920" pageHeight="1200" math="0" shadow="0">
            <root>
                <mxCell id="_Zx3xDYEI6H6rwR2_vVM-0"/>
                <mxCell id="_Zx3xDYEI6H6rwR2_vVM-1" parent="_Zx3xDYEI6H6rwR2_vVM-0"/>
                <mxCell id="Y3DcfM5gR6wA2JWs2Whq-0" value="We should be able to navigate between different sub-apps without a full page refresh" style="rounded=0;whiteSpace=wrap;html=1;fontStyle=1;fillColor=#dae8fc;strokeColor=#6c8ebf;fontSize=18;" parent="_Zx3xDYEI6H6rwR2_vVM-1" vertex="1">
                    <mxGeometry x="540" y="280" width="470" height="60" as="geometry"/>
                </mxCell>
                <mxCell id="Y3DcfM5gR6wA2JWs2Whq-5" value="Inflexible Requirement #1" style="text;html=1;strokeColor=none;fillColor=none;align=center;verticalAlign=middle;whiteSpace=wrap;rounded=0;fontSize=12;" parent="_Zx3xDYEI6H6rwR2_vVM-1" vertex="1">
                    <mxGeometry x="662.5" y="259" width="225" height="20" as="geometry"/>
                </mxCell>
            </root>
        </mxGraphModel>
    </diagram>
    <diagram id="KAQLsTioJ5mTH9hxLYnm" name="05 - nav">
        <mxGraphModel dx="1542" dy="648" grid="1" gridSize="10" guides="1" tooltips="1" connect="1" arrows="1" fold="1" page="1" pageScale="1" pageWidth="1920" pageHeight="1200" math="0" shadow="0">
            <root>
                <mxCell id="Ps2ArPRwmTeHE9cxvUOa-0"/>
                <mxCell id="Ps2ArPRwmTeHE9cxvUOa-1" parent="Ps2ArPRwmTeHE9cxvUOa-0"/>
                <mxCell id="NeRp41dqOBb3h5xkO26H-0" value="" style="strokeWidth=1;shadow=0;dashed=0;align=center;html=1;shape=mxgraph.mockup.containers.browserWindow;rSize=0;strokeColor=#666666;strokeColor2=#008cff;strokeColor3=#c4c4c4;mainText=,;recursiveResize=0;" parent="Ps2ArPRwmTeHE9cxvUOa-1" vertex="1">
                    <mxGeometry x="450" y="320" width="370" height="380" as="geometry"/>
                </mxCell>
                <mxCell id="NeRp41dqOBb3h5xkO26H-1" value="Page 1" style="strokeWidth=1;shadow=0;dashed=0;align=center;html=1;shape=mxgraph.mockup.containers.anchor;fontSize=17;fontColor=#666666;align=left;" parent="NeRp41dqOBb3h5xkO26H-0" vertex="1">
                    <mxGeometry x="60" y="12" width="110" height="26" as="geometry"/>
                </mxCell>
                <mxCell id="NeRp41dqOBb3h5xkO26H-2" value="" style="strokeWidth=1;shadow=0;dashed=0;align=center;html=1;shape=mxgraph.mockup.containers.anchor;rSize=0;fontSize=17;fontColor=#666666;align=left;" parent="NeRp41dqOBb3h5xkO26H-0" vertex="1">
                    <mxGeometry x="130" y="60" width="250" height="26" as="geometry"/>
                </mxCell>
                <mxCell id="NeRp41dqOBb3h5xkO26H-3" value="" style="rounded=0;whiteSpace=wrap;html=1;" parent="NeRp41dqOBb3h5xkO26H-0" vertex="1">
                    <mxGeometry y="110" width="370" height="40" as="geometry"/>
                </mxCell>
                <mxCell id="NeRp41dqOBb3h5xkO26H-4" value="App" style="text;html=1;strokeColor=none;fillColor=none;align=center;verticalAlign=middle;whiteSpace=wrap;rounded=0;" parent="NeRp41dqOBb3h5xkO26H-0" vertex="1">
                    <mxGeometry x="20" y="120" width="40" height="20" as="geometry"/>
                </mxCell>
                <mxCell id="NeRp41dqOBb3h5xkO26H-5" value="Login" style="text;html=1;strokeColor=none;fillColor=none;align=center;verticalAlign=middle;whiteSpace=wrap;rounded=0;" parent="NeRp41dqOBb3h5xkO26H-0" vertex="1">
                    <mxGeometry x="317.5" y="120" width="40" height="20" as="geometry"/>
                </mxCell>
                <mxCell id="NeRp41dqOBb3h5xkO26H-6" value="Pricing" style="text;html=1;strokeColor=none;fillColor=none;align=center;verticalAlign=middle;whiteSpace=wrap;rounded=0;fontSize=23;" parent="NeRp41dqOBb3h5xkO26H-0" vertex="1">
                    <mxGeometry x="165" y="180" width="40" height="20" as="geometry"/>
                </mxCell>
                <mxCell id="NeRp41dqOBb3h5xkO26H-7" value="" style="rounded=0;whiteSpace=wrap;html=1;fontSize=14;" parent="NeRp41dqOBb3h5xkO26H-0" vertex="1">
                    <mxGeometry x="50" y="220" width="120" height="100" as="geometry"/>
                </mxCell>
                <mxCell id="NeRp41dqOBb3h5xkO26H-8" value="Free" style="text;html=1;strokeColor=none;fillColor=none;align=center;verticalAlign=middle;whiteSpace=wrap;rounded=0;fontSize=17;" parent="NeRp41dqOBb3h5xkO26H-0" vertex="1">
                    <mxGeometry x="90" y="230" width="40" height="20" as="geometry"/>
                </mxCell>
                <mxCell id="NeRp41dqOBb3h5xkO26H-9" value="Sign Up" style="rounded=1;whiteSpace=wrap;html=1;fontSize=14;" parent="NeRp41dqOBb3h5xkO26H-0" vertex="1">
                    <mxGeometry x="62.5" y="280" width="95" height="30" as="geometry"/>
                </mxCell>
                <mxCell id="NeRp41dqOBb3h5xkO26H-10" value="" style="rounded=0;whiteSpace=wrap;html=1;fontSize=14;" parent="NeRp41dqOBb3h5xkO26H-0" vertex="1">
                    <mxGeometry x="205" y="220" width="120" height="100" as="geometry"/>
                </mxCell>
                <mxCell id="NeRp41dqOBb3h5xkO26H-11" value="$30/month" style="text;html=1;strokeColor=none;fillColor=none;align=center;verticalAlign=middle;whiteSpace=wrap;rounded=0;fontSize=17;" parent="NeRp41dqOBb3h5xkO26H-0" vertex="1">
                    <mxGeometry x="245" y="230" width="40" height="20" as="geometry"/>
                </mxCell>
                <mxCell id="NeRp41dqOBb3h5xkO26H-12" value="Sign Up" style="rounded=1;whiteSpace=wrap;html=1;fontSize=14;" parent="NeRp41dqOBb3h5xkO26H-0" vertex="1">
                    <mxGeometry x="217.5" y="280" width="95" height="30" as="geometry"/>
                </mxCell>
                <mxCell id="NeRp41dqOBb3h5xkO26H-13" value="app.com/pricing" style="text;html=1;strokeColor=none;fillColor=none;align=left;verticalAlign=middle;whiteSpace=wrap;rounded=0;fontSize=14;fontStyle=1" parent="NeRp41dqOBb3h5xkO26H-0" vertex="1">
                    <mxGeometry x="130" y="63" width="150" height="20" as="geometry"/>
                </mxCell>
                <mxCell id="NeRp41dqOBb3h5xkO26H-14" value="" style="strokeWidth=1;shadow=0;dashed=0;align=center;html=1;shape=mxgraph.mockup.containers.browserWindow;rSize=0;strokeColor=#666666;strokeColor2=#008cff;strokeColor3=#c4c4c4;mainText=,;recursiveResize=0;" parent="Ps2ArPRwmTeHE9cxvUOa-1" vertex="1">
                    <mxGeometry x="1010" y="320" width="370" height="380" as="geometry"/>
                </mxCell>
                <mxCell id="NeRp41dqOBb3h5xkO26H-15" value="Page 1" style="strokeWidth=1;shadow=0;dashed=0;align=center;html=1;shape=mxgraph.mockup.containers.anchor;fontSize=17;fontColor=#666666;align=left;" parent="NeRp41dqOBb3h5xkO26H-14" vertex="1">
                    <mxGeometry x="60" y="12" width="110" height="26" as="geometry"/>
                </mxCell>
                <mxCell id="NeRp41dqOBb3h5xkO26H-16" value="" style="strokeWidth=1;shadow=0;dashed=0;align=center;html=1;shape=mxgraph.mockup.containers.anchor;rSize=0;fontSize=17;fontColor=#666666;align=left;" parent="NeRp41dqOBb3h5xkO26H-14" vertex="1">
                    <mxGeometry x="130" y="60" width="250" height="26" as="geometry"/>
                </mxCell>
                <mxCell id="NeRp41dqOBb3h5xkO26H-17" value="" style="rounded=0;whiteSpace=wrap;html=1;" parent="NeRp41dqOBb3h5xkO26H-14" vertex="1">
                    <mxGeometry y="110" width="370" height="40" as="geometry"/>
                </mxCell>
                <mxCell id="NeRp41dqOBb3h5xkO26H-18" value="App" style="text;html=1;strokeColor=none;fillColor=none;align=center;verticalAlign=middle;whiteSpace=wrap;rounded=0;" parent="NeRp41dqOBb3h5xkO26H-14" vertex="1">
                    <mxGeometry x="20" y="120" width="40" height="20" as="geometry"/>
                </mxCell>
                <mxCell id="NeRp41dqOBb3h5xkO26H-19" value="Login" style="text;html=1;strokeColor=none;fillColor=none;align=center;verticalAlign=middle;whiteSpace=wrap;rounded=0;" parent="NeRp41dqOBb3h5xkO26H-14" vertex="1">
                    <mxGeometry x="317.5" y="120" width="40" height="20" as="geometry"/>
                </mxCell>
                <mxCell id="NeRp41dqOBb3h5xkO26H-20" value="Sign In" style="text;html=1;strokeColor=none;fillColor=none;align=center;verticalAlign=middle;whiteSpace=wrap;rounded=0;fontSize=23;" parent="NeRp41dqOBb3h5xkO26H-14" vertex="1">
                    <mxGeometry x="142.5" y="170" width="85" height="20" as="geometry"/>
                </mxCell>
                <mxCell id="NeRp41dqOBb3h5xkO26H-21" value="app.com/auth/signin" style="text;html=1;strokeColor=none;fillColor=none;align=left;verticalAlign=middle;whiteSpace=wrap;rounded=0;fontSize=14;fontStyle=1" parent="NeRp41dqOBb3h5xkO26H-14" vertex="1">
                    <mxGeometry x="130" y="63" width="150" height="20" as="geometry"/>
                </mxCell>
                <mxCell id="NeRp41dqOBb3h5xkO26H-22" value="&lt;i style=&quot;font-size: 11px;&quot;&gt;Enter Email&lt;/i&gt;" style="rounded=0;whiteSpace=wrap;html=1;fontSize=11;align=left;spacingLeft=10;fontColor=#919191;" parent="NeRp41dqOBb3h5xkO26H-14" vertex="1">
                    <mxGeometry x="89" y="210" width="192" height="25" as="geometry"/>
                </mxCell>
                <mxCell id="NeRp41dqOBb3h5xkO26H-23" value="&lt;i style=&quot;font-size: 11px&quot;&gt;Enter Password&lt;/i&gt;" style="rounded=0;whiteSpace=wrap;html=1;fontSize=11;align=left;spacingLeft=10;fontColor=#919191;" parent="NeRp41dqOBb3h5xkO26H-14" vertex="1">
                    <mxGeometry x="88" y="245" width="192" height="25" as="geometry"/>
                </mxCell>
                <mxCell id="NeRp41dqOBb3h5xkO26H-24" value="Sign In" style="rounded=1;whiteSpace=wrap;html=1;fontSize=11;align=center;" parent="NeRp41dqOBb3h5xkO26H-14" vertex="1">
                    <mxGeometry x="124" y="280" width="120" height="30" as="geometry"/>
                </mxCell>
                <mxCell id="Z_eZ0TyI1XSK3-QozWPy-0" style="edgeStyle=orthogonalEdgeStyle;rounded=0;orthogonalLoop=1;jettySize=auto;html=1;exitX=1;exitY=0.5;exitDx=0;exitDy=0;strokeColor=#000000;strokeWidth=7;fontSize=22;" parent="Ps2ArPRwmTeHE9cxvUOa-1" source="NeRp41dqOBb3h5xkO26H-25" target="NeRp41dqOBb3h5xkO26H-26" edge="1">
                    <mxGeometry relative="1" as="geometry"/>
                </mxCell>
                <mxCell id="NeRp41dqOBb3h5xkO26H-25" value="Pricing Page" style="rounded=0;whiteSpace=wrap;html=1;fontSize=23;align=center;fillColor=#dae8fc;strokeColor=#6c8ebf;fontStyle=1" parent="Ps2ArPRwmTeHE9cxvUOa-1" vertex="1">
                    <mxGeometry x="530" y="260" width="210" height="50" as="geometry"/>
                </mxCell>
                <mxCell id="NeRp41dqOBb3h5xkO26H-26" value="Sign In Page" style="rounded=0;whiteSpace=wrap;html=1;fontSize=23;align=center;fillColor=#d5e8d4;strokeColor=#82b366;fontStyle=1" parent="Ps2ArPRwmTeHE9cxvUOa-1" vertex="1">
                    <mxGeometry x="1090" y="260" width="210" height="50" as="geometry"/>
                </mxCell>
            </root>
        </mxGraphModel>
    </diagram>
    <diagram name="03 - req" id="vDDOL-cb76u3q9YrVaKy">
        <mxGraphModel dx="1542" dy="648" grid="1" gridSize="10" guides="1" tooltips="1" connect="1" arrows="1" fold="1" page="1" pageScale="1" pageWidth="1920" pageHeight="1200" math="0" shadow="0">
            <root>
                <mxCell id="Fy77UgH5EGpRWo935wZO-0"/>
                <mxCell id="Fy77UgH5EGpRWo935wZO-1" parent="Fy77UgH5EGpRWo935wZO-0"/>
                <mxCell id="Fy77UgH5EGpRWo935wZO-2" value="Both the container &lt;i&gt;and&lt;/i&gt; child apps should have control over the routing process" style="rounded=0;whiteSpace=wrap;html=1;fontStyle=1;fillColor=#dae8fc;strokeColor=#6c8ebf;fontSize=18;" parent="Fy77UgH5EGpRWo935wZO-1" vertex="1">
                    <mxGeometry x="540" y="280" width="470" height="60" as="geometry"/>
                </mxCell>
                <mxCell id="Fy77UgH5EGpRWo935wZO-3" value="Inflexible Requirement #2" style="text;html=1;strokeColor=none;fillColor=none;align=center;verticalAlign=middle;whiteSpace=wrap;rounded=0;fontSize=12;" parent="Fy77UgH5EGpRWo935wZO-1" vertex="1">
                    <mxGeometry x="662.5" y="259" width="225" height="20" as="geometry"/>
                </mxCell>
            </root>
        </mxGraphModel>
    </diagram>
    <diagram id="kG1YC62mtsZfisQjDfNK" name="06 - childnav">
        <mxGraphModel dx="1542" dy="648" grid="1" gridSize="10" guides="1" tooltips="1" connect="1" arrows="1" fold="1" page="1" pageScale="1" pageWidth="1920" pageHeight="1200" math="0" shadow="0">
            <root>
                <mxCell id="35ADBElSwIeY546VaOpR-0"/>
                <mxCell id="35ADBElSwIeY546VaOpR-1" parent="35ADBElSwIeY546VaOpR-0"/>
                <mxCell id="35ADBElSwIeY546VaOpR-2" value="" style="strokeWidth=1;shadow=0;dashed=0;align=center;html=1;shape=mxgraph.mockup.containers.browserWindow;rSize=0;strokeColor=#666666;strokeColor2=#008cff;strokeColor3=#c4c4c4;mainText=,;recursiveResize=0;" parent="35ADBElSwIeY546VaOpR-1" vertex="1">
                    <mxGeometry x="540" y="330" width="370" height="330" as="geometry"/>
                </mxCell>
                <mxCell id="35ADBElSwIeY546VaOpR-3" value="Page 1" style="strokeWidth=1;shadow=0;dashed=0;align=center;html=1;shape=mxgraph.mockup.containers.anchor;fontSize=17;fontColor=#666666;align=left;" parent="35ADBElSwIeY546VaOpR-2" vertex="1">
                    <mxGeometry x="60" y="12" width="110" height="26" as="geometry"/>
                </mxCell>
                <mxCell id="35ADBElSwIeY546VaOpR-4" value="" style="strokeWidth=1;shadow=0;dashed=0;align=center;html=1;shape=mxgraph.mockup.containers.anchor;rSize=0;fontSize=17;fontColor=#666666;align=left;" parent="35ADBElSwIeY546VaOpR-2" vertex="1">
                    <mxGeometry x="130" y="60" width="250" height="26" as="geometry"/>
                </mxCell>
                <mxCell id="35ADBElSwIeY546VaOpR-5" value="" style="rounded=0;whiteSpace=wrap;html=1;" parent="35ADBElSwIeY546VaOpR-2" vertex="1">
                    <mxGeometry y="110" width="370" height="40" as="geometry"/>
                </mxCell>
                <mxCell id="35ADBElSwIeY546VaOpR-6" value="App" style="text;html=1;strokeColor=none;fillColor=none;align=center;verticalAlign=middle;whiteSpace=wrap;rounded=0;" parent="35ADBElSwIeY546VaOpR-2" vertex="1">
                    <mxGeometry x="20" y="120" width="40" height="20" as="geometry"/>
                </mxCell>
                <mxCell id="35ADBElSwIeY546VaOpR-7" value="Login" style="text;html=1;strokeColor=none;fillColor=none;align=center;verticalAlign=middle;whiteSpace=wrap;rounded=0;" parent="35ADBElSwIeY546VaOpR-2" vertex="1">
                    <mxGeometry x="317.5" y="120" width="40" height="20" as="geometry"/>
                </mxCell>
                <mxCell id="35ADBElSwIeY546VaOpR-8" value="Welcome" style="text;html=1;strokeColor=none;fillColor=none;align=center;verticalAlign=middle;whiteSpace=wrap;rounded=0;fontSize=23;" parent="35ADBElSwIeY546VaOpR-2" vertex="1">
                    <mxGeometry x="165" y="180" width="40" height="20" as="geometry"/>
                </mxCell>
                <mxCell id="35ADBElSwIeY546VaOpR-9" value="See pricing" style="rounded=1;whiteSpace=wrap;html=1;" parent="35ADBElSwIeY546VaOpR-2" vertex="1">
                    <mxGeometry x="122.5" y="280" width="125" height="30" as="geometry"/>
                </mxCell>
                <mxCell id="35ADBElSwIeY546VaOpR-10" value="app.com/" style="text;html=1;strokeColor=none;fillColor=none;align=left;verticalAlign=middle;whiteSpace=wrap;rounded=0;fontSize=14;fontStyle=1" parent="35ADBElSwIeY546VaOpR-2" vertex="1">
                    <mxGeometry x="130" y="63" width="150" height="20" as="geometry"/>
                </mxCell>
                <mxCell id="35ADBElSwIeY546VaOpR-11" value="Use our awesome dashboard" style="text;html=1;strokeColor=none;fillColor=none;align=center;verticalAlign=middle;whiteSpace=wrap;rounded=0;fontSize=23;" parent="35ADBElSwIeY546VaOpR-2" vertex="1">
                    <mxGeometry x="82.5" y="220" width="205" height="20" as="geometry"/>
                </mxCell>
                <mxCell id="35ADBElSwIeY546VaOpR-12" value="" style="strokeWidth=1;shadow=0;dashed=0;align=center;html=1;shape=mxgraph.mockup.containers.browserWindow;rSize=0;strokeColor=#666666;strokeColor2=#008cff;strokeColor3=#c4c4c4;mainText=,;recursiveResize=0;" parent="35ADBElSwIeY546VaOpR-1" vertex="1">
                    <mxGeometry x="1040" y="330" width="370" height="330" as="geometry"/>
                </mxCell>
                <mxCell id="35ADBElSwIeY546VaOpR-13" value="Page 1" style="strokeWidth=1;shadow=0;dashed=0;align=center;html=1;shape=mxgraph.mockup.containers.anchor;fontSize=17;fontColor=#666666;align=left;" parent="35ADBElSwIeY546VaOpR-12" vertex="1">
                    <mxGeometry x="60" y="12" width="110" height="26" as="geometry"/>
                </mxCell>
                <mxCell id="35ADBElSwIeY546VaOpR-14" value="" style="strokeWidth=1;shadow=0;dashed=0;align=center;html=1;shape=mxgraph.mockup.containers.anchor;rSize=0;fontSize=17;fontColor=#666666;align=left;" parent="35ADBElSwIeY546VaOpR-12" vertex="1">
                    <mxGeometry x="130" y="60" width="250" height="26" as="geometry"/>
                </mxCell>
                <mxCell id="35ADBElSwIeY546VaOpR-15" value="" style="rounded=0;whiteSpace=wrap;html=1;" parent="35ADBElSwIeY546VaOpR-12" vertex="1">
                    <mxGeometry y="110" width="370" height="40" as="geometry"/>
                </mxCell>
                <mxCell id="35ADBElSwIeY546VaOpR-16" value="App" style="text;html=1;strokeColor=none;fillColor=none;align=center;verticalAlign=middle;whiteSpace=wrap;rounded=0;" parent="35ADBElSwIeY546VaOpR-12" vertex="1">
                    <mxGeometry x="20" y="120" width="40" height="20" as="geometry"/>
                </mxCell>
                <mxCell id="35ADBElSwIeY546VaOpR-17" value="Login" style="text;html=1;strokeColor=none;fillColor=none;align=center;verticalAlign=middle;whiteSpace=wrap;rounded=0;" parent="35ADBElSwIeY546VaOpR-12" vertex="1">
                    <mxGeometry x="317.5" y="120" width="40" height="20" as="geometry"/>
                </mxCell>
                <mxCell id="35ADBElSwIeY546VaOpR-18" value="Pricing" style="text;html=1;strokeColor=none;fillColor=none;align=center;verticalAlign=middle;whiteSpace=wrap;rounded=0;fontSize=23;" parent="35ADBElSwIeY546VaOpR-12" vertex="1">
                    <mxGeometry x="165" y="180" width="40" height="20" as="geometry"/>
                </mxCell>
                <mxCell id="35ADBElSwIeY546VaOpR-19" value="" style="rounded=0;whiteSpace=wrap;html=1;fontSize=14;" parent="35ADBElSwIeY546VaOpR-12" vertex="1">
                    <mxGeometry x="50" y="220" width="120" height="100" as="geometry"/>
                </mxCell>
                <mxCell id="35ADBElSwIeY546VaOpR-20" value="Free" style="text;html=1;strokeColor=none;fillColor=none;align=center;verticalAlign=middle;whiteSpace=wrap;rounded=0;fontSize=17;" parent="35ADBElSwIeY546VaOpR-12" vertex="1">
                    <mxGeometry x="90" y="230" width="40" height="20" as="geometry"/>
                </mxCell>
                <mxCell id="35ADBElSwIeY546VaOpR-21" value="Sign Up" style="rounded=1;whiteSpace=wrap;html=1;fontSize=14;" parent="35ADBElSwIeY546VaOpR-12" vertex="1">
                    <mxGeometry x="62.5" y="280" width="95" height="30" as="geometry"/>
                </mxCell>
                <mxCell id="35ADBElSwIeY546VaOpR-22" value="" style="rounded=0;whiteSpace=wrap;html=1;fontSize=14;" parent="35ADBElSwIeY546VaOpR-12" vertex="1">
                    <mxGeometry x="205" y="220" width="120" height="100" as="geometry"/>
                </mxCell>
                <mxCell id="35ADBElSwIeY546VaOpR-23" value="$30/month" style="text;html=1;strokeColor=none;fillColor=none;align=center;verticalAlign=middle;whiteSpace=wrap;rounded=0;fontSize=17;" parent="35ADBElSwIeY546VaOpR-12" vertex="1">
                    <mxGeometry x="245" y="230" width="40" height="20" as="geometry"/>
                </mxCell>
                <mxCell id="35ADBElSwIeY546VaOpR-24" value="Sign Up" style="rounded=1;whiteSpace=wrap;html=1;fontSize=14;" parent="35ADBElSwIeY546VaOpR-12" vertex="1">
                    <mxGeometry x="217.5" y="280" width="95" height="30" as="geometry"/>
                </mxCell>
                <mxCell id="35ADBElSwIeY546VaOpR-25" value="app.com/pricing" style="text;html=1;strokeColor=none;fillColor=none;align=left;verticalAlign=middle;whiteSpace=wrap;rounded=0;fontSize=14;fontStyle=1" parent="35ADBElSwIeY546VaOpR-12" vertex="1">
                    <mxGeometry x="130" y="63" width="150" height="20" as="geometry"/>
                </mxCell>
                <mxCell id="35ADBElSwIeY546VaOpR-40" style="edgeStyle=orthogonalEdgeStyle;rounded=0;orthogonalLoop=1;jettySize=auto;html=1;exitX=1;exitY=0.5;exitDx=0;exitDy=0;fontSize=12;strokeWidth=7;" parent="35ADBElSwIeY546VaOpR-1" source="35ADBElSwIeY546VaOpR-37" target="35ADBElSwIeY546VaOpR-38" edge="1">
                    <mxGeometry relative="1" as="geometry"/>
                </mxCell>
                <mxCell id="35ADBElSwIeY546VaOpR-37" value="Home Page" style="rounded=0;whiteSpace=wrap;html=1;fontSize=23;align=center;fillColor=#dae8fc;strokeColor=#6c8ebf;fontStyle=1" parent="35ADBElSwIeY546VaOpR-1" vertex="1">
                    <mxGeometry x="620" y="270" width="210" height="50" as="geometry"/>
                </mxCell>
                <mxCell id="35ADBElSwIeY546VaOpR-38" value="Pricing Page" style="rounded=0;whiteSpace=wrap;html=1;fontSize=23;align=center;fillColor=#dae8fc;strokeColor=#6c8ebf;fontStyle=1" parent="35ADBElSwIeY546VaOpR-1" vertex="1">
                    <mxGeometry x="1120" y="270" width="210" height="50" as="geometry"/>
                </mxCell>
                <mxCell id="0m7QXpERL2WojMbd2DCN-0" value="Routing logic in Marketing controls transition between two pages &lt;i style=&quot;font-size: 29px;&quot;&gt;in Marketing&lt;/i&gt;" style="rounded=0;whiteSpace=wrap;html=1;fontSize=29;fillColor=#f8cecc;strokeColor=#b85450;" parent="35ADBElSwIeY546VaOpR-1" vertex="1">
                    <mxGeometry x="820" y="90" width="320" height="160" as="geometry"/>
                </mxCell>
            </root>
        </mxGraphModel>
    </diagram>
    <diagram name="07 - hostnav" id="sSaxjFP8SAzcmgH3wqB1">
        <mxGraphModel dx="1542" dy="648" grid="1" gridSize="10" guides="1" tooltips="1" connect="1" arrows="1" fold="1" page="1" pageScale="1" pageWidth="1920" pageHeight="1200" math="0" shadow="0">
            <root>
                <mxCell id="ICfHe6K-7A79RDuP93HE-0"/>
                <mxCell id="ICfHe6K-7A79RDuP93HE-1" parent="ICfHe6K-7A79RDuP93HE-0"/>
                <mxCell id="ICfHe6K-7A79RDuP93HE-26" value="" style="strokeWidth=1;shadow=0;dashed=0;align=center;html=1;shape=mxgraph.mockup.containers.browserWindow;rSize=0;strokeColor=#666666;strokeColor2=#008cff;strokeColor3=#c4c4c4;mainText=,;recursiveResize=0;" parent="ICfHe6K-7A79RDuP93HE-1" vertex="1">
                    <mxGeometry x="980" y="400" width="370" height="320" as="geometry"/>
                </mxCell>
                <mxCell id="ICfHe6K-7A79RDuP93HE-27" value="Page 1" style="strokeWidth=1;shadow=0;dashed=0;align=center;html=1;shape=mxgraph.mockup.containers.anchor;fontSize=17;fontColor=#666666;align=left;" parent="ICfHe6K-7A79RDuP93HE-26" vertex="1">
                    <mxGeometry x="60" y="12" width="110" height="26" as="geometry"/>
                </mxCell>
                <mxCell id="ICfHe6K-7A79RDuP93HE-28" value="" style="strokeWidth=1;shadow=0;dashed=0;align=center;html=1;shape=mxgraph.mockup.containers.anchor;rSize=0;fontSize=17;fontColor=#666666;align=left;" parent="ICfHe6K-7A79RDuP93HE-26" vertex="1">
                    <mxGeometry x="130" y="60" width="250" height="26" as="geometry"/>
                </mxCell>
                <mxCell id="ICfHe6K-7A79RDuP93HE-29" value="" style="rounded=0;whiteSpace=wrap;html=1;" parent="ICfHe6K-7A79RDuP93HE-26" vertex="1">
                    <mxGeometry y="110" width="370" height="40" as="geometry"/>
                </mxCell>
                <mxCell id="ICfHe6K-7A79RDuP93HE-30" value="App" style="text;html=1;strokeColor=none;fillColor=none;align=center;verticalAlign=middle;whiteSpace=wrap;rounded=0;" parent="ICfHe6K-7A79RDuP93HE-26" vertex="1">
                    <mxGeometry x="20" y="120" width="40" height="20" as="geometry"/>
                </mxCell>
                <mxCell id="ICfHe6K-7A79RDuP93HE-31" value="Login" style="text;html=1;strokeColor=none;fillColor=none;align=center;verticalAlign=middle;whiteSpace=wrap;rounded=0;" parent="ICfHe6K-7A79RDuP93HE-26" vertex="1">
                    <mxGeometry x="317.5" y="120" width="40" height="20" as="geometry"/>
                </mxCell>
                <mxCell id="ICfHe6K-7A79RDuP93HE-32" value="Sign In" style="text;html=1;strokeColor=none;fillColor=none;align=center;verticalAlign=middle;whiteSpace=wrap;rounded=0;fontSize=23;" parent="ICfHe6K-7A79RDuP93HE-26" vertex="1">
                    <mxGeometry x="142.5" y="170" width="85" height="20" as="geometry"/>
                </mxCell>
                <mxCell id="ICfHe6K-7A79RDuP93HE-33" value="app.com/auth/signin" style="text;html=1;strokeColor=none;fillColor=none;align=left;verticalAlign=middle;whiteSpace=wrap;rounded=0;fontSize=14;fontStyle=1" parent="ICfHe6K-7A79RDuP93HE-26" vertex="1">
                    <mxGeometry x="130" y="63" width="150" height="20" as="geometry"/>
                </mxCell>
                <mxCell id="ICfHe6K-7A79RDuP93HE-34" value="&lt;i style=&quot;font-size: 11px;&quot;&gt;Enter Email&lt;/i&gt;" style="rounded=0;whiteSpace=wrap;html=1;fontSize=11;align=left;spacingLeft=10;fontColor=#919191;" parent="ICfHe6K-7A79RDuP93HE-26" vertex="1">
                    <mxGeometry x="89" y="210" width="192" height="25" as="geometry"/>
                </mxCell>
                <mxCell id="ICfHe6K-7A79RDuP93HE-35" value="&lt;i style=&quot;font-size: 11px&quot;&gt;Enter Password&lt;/i&gt;" style="rounded=0;whiteSpace=wrap;html=1;fontSize=11;align=left;spacingLeft=10;fontColor=#919191;" parent="ICfHe6K-7A79RDuP93HE-26" vertex="1">
                    <mxGeometry x="88" y="245" width="192" height="25" as="geometry"/>
                </mxCell>
                <mxCell id="ICfHe6K-7A79RDuP93HE-36" value="Sign In" style="rounded=1;whiteSpace=wrap;html=1;fontSize=11;align=center;" parent="ICfHe6K-7A79RDuP93HE-26" vertex="1">
                    <mxGeometry x="124" y="280" width="120" height="30" as="geometry"/>
                </mxCell>
                <mxCell id="ICfHe6K-7A79RDuP93HE-40" value="Sign In Page" style="rounded=0;whiteSpace=wrap;html=1;fontSize=23;align=center;fillColor=#d5e8d4;strokeColor=#82b366;fontStyle=1" parent="ICfHe6K-7A79RDuP93HE-1" vertex="1">
                    <mxGeometry x="1060" y="340" width="210" height="50" as="geometry"/>
                </mxCell>
                <mxCell id="ICfHe6K-7A79RDuP93HE-41" value="" style="strokeWidth=1;shadow=0;dashed=0;align=center;html=1;shape=mxgraph.mockup.containers.browserWindow;rSize=0;strokeColor=#666666;strokeColor2=#008cff;strokeColor3=#c4c4c4;mainText=,;recursiveResize=0;" parent="ICfHe6K-7A79RDuP93HE-1" vertex="1">
                    <mxGeometry x="440" y="400" width="370" height="320" as="geometry"/>
                </mxCell>
                <mxCell id="ICfHe6K-7A79RDuP93HE-42" value="Page 1" style="strokeWidth=1;shadow=0;dashed=0;align=center;html=1;shape=mxgraph.mockup.containers.anchor;fontSize=17;fontColor=#666666;align=left;" parent="ICfHe6K-7A79RDuP93HE-41" vertex="1">
                    <mxGeometry x="60" y="12" width="110" height="26" as="geometry"/>
                </mxCell>
                <mxCell id="ICfHe6K-7A79RDuP93HE-43" value="" style="strokeWidth=1;shadow=0;dashed=0;align=center;html=1;shape=mxgraph.mockup.containers.anchor;rSize=0;fontSize=17;fontColor=#666666;align=left;" parent="ICfHe6K-7A79RDuP93HE-41" vertex="1">
                    <mxGeometry x="130" y="60" width="250" height="26" as="geometry"/>
                </mxCell>
                <mxCell id="ICfHe6K-7A79RDuP93HE-44" value="" style="rounded=0;whiteSpace=wrap;html=1;" parent="ICfHe6K-7A79RDuP93HE-41" vertex="1">
                    <mxGeometry y="110" width="370" height="40" as="geometry"/>
                </mxCell>
                <mxCell id="ICfHe6K-7A79RDuP93HE-45" value="App" style="text;html=1;strokeColor=none;fillColor=none;align=center;verticalAlign=middle;whiteSpace=wrap;rounded=0;" parent="ICfHe6K-7A79RDuP93HE-41" vertex="1">
                    <mxGeometry x="20" y="120" width="40" height="20" as="geometry"/>
                </mxCell>
                <mxCell id="ICfHe6K-7A79RDuP93HE-46" value="Login" style="text;html=1;strokeColor=none;fillColor=none;align=center;verticalAlign=middle;whiteSpace=wrap;rounded=0;" parent="ICfHe6K-7A79RDuP93HE-41" vertex="1">
                    <mxGeometry x="317.5" y="120" width="40" height="20" as="geometry"/>
                </mxCell>
                <mxCell id="ICfHe6K-7A79RDuP93HE-47" value="Welcome" style="text;html=1;strokeColor=none;fillColor=none;align=center;verticalAlign=middle;whiteSpace=wrap;rounded=0;fontSize=23;" parent="ICfHe6K-7A79RDuP93HE-41" vertex="1">
                    <mxGeometry x="165" y="180" width="40" height="20" as="geometry"/>
                </mxCell>
                <mxCell id="ICfHe6K-7A79RDuP93HE-48" value="See pricing" style="rounded=1;whiteSpace=wrap;html=1;" parent="ICfHe6K-7A79RDuP93HE-41" vertex="1">
                    <mxGeometry x="122.5" y="280" width="125" height="30" as="geometry"/>
                </mxCell>
                <mxCell id="ICfHe6K-7A79RDuP93HE-49" value="app.com/" style="text;html=1;strokeColor=none;fillColor=none;align=left;verticalAlign=middle;whiteSpace=wrap;rounded=0;fontSize=14;fontStyle=1" parent="ICfHe6K-7A79RDuP93HE-41" vertex="1">
                    <mxGeometry x="130" y="63" width="150" height="20" as="geometry"/>
                </mxCell>
                <mxCell id="ICfHe6K-7A79RDuP93HE-50" value="Use our awesome dashboard" style="text;html=1;strokeColor=none;fillColor=none;align=center;verticalAlign=middle;whiteSpace=wrap;rounded=0;fontSize=23;" parent="ICfHe6K-7A79RDuP93HE-41" vertex="1">
                    <mxGeometry x="82.5" y="220" width="205" height="20" as="geometry"/>
                </mxCell>
                <mxCell id="ICfHe6K-7A79RDuP93HE-52" style="edgeStyle=orthogonalEdgeStyle;rounded=0;orthogonalLoop=1;jettySize=auto;html=1;exitX=1;exitY=0.5;exitDx=0;exitDy=0;fontSize=12;fillColor=#f8cecc;strokeWidth=6;" parent="ICfHe6K-7A79RDuP93HE-1" source="ICfHe6K-7A79RDuP93HE-51" target="ICfHe6K-7A79RDuP93HE-40" edge="1">
                    <mxGeometry relative="1" as="geometry"/>
                </mxCell>
                <mxCell id="ICfHe6K-7A79RDuP93HE-51" value="Home Page" style="rounded=0;whiteSpace=wrap;html=1;fontSize=23;align=center;fillColor=#dae8fc;strokeColor=#6c8ebf;fontStyle=1" parent="ICfHe6K-7A79RDuP93HE-1" vertex="1">
                    <mxGeometry x="520" y="340" width="210" height="50" as="geometry"/>
                </mxCell>
                <mxCell id="2TF_6uf0sLtqHFnVLjmK-0" value="Routing logic in &lt;b&gt;Container&lt;/b&gt; controls transition between two sub apps" style="rounded=0;whiteSpace=wrap;html=1;fontSize=29;fillColor=#f8cecc;strokeColor=#b85450;" parent="ICfHe6K-7A79RDuP93HE-1" vertex="1">
                    <mxGeometry x="740" y="160" width="320" height="160" as="geometry"/>
                </mxCell>
            </root>
        </mxGraphModel>
    </diagram>
    <diagram name="07 - routers" id="O92z_bImah8X328errjw">
        <mxGraphModel dx="1542" dy="648" grid="1" gridSize="10" guides="1" tooltips="1" connect="1" arrows="1" fold="1" page="1" pageScale="1" pageWidth="1920" pageHeight="1200" math="0" shadow="0">
            <root>
                <mxCell id="c5bg6gpFX1xCMmgN13pe-0"/>
                <mxCell id="c5bg6gpFX1xCMmgN13pe-1" parent="c5bg6gpFX1xCMmgN13pe-0"/>
                <mxCell id="c5bg6gpFX1xCMmgN13pe-2" value="The container + child app routers can communicate but should do so in the &lt;i&gt;most generic way possible&lt;/i&gt;" style="rounded=0;whiteSpace=wrap;html=1;fontStyle=1;fillColor=#dae8fc;strokeColor=#6c8ebf;fontSize=18;" parent="c5bg6gpFX1xCMmgN13pe-1" vertex="1">
                    <mxGeometry x="540" y="280" width="470" height="70" as="geometry"/>
                </mxCell>
                <mxCell id="c5bg6gpFX1xCMmgN13pe-3" value="Inflexible Requirement #3" style="text;html=1;strokeColor=none;fillColor=none;align=center;verticalAlign=middle;whiteSpace=wrap;rounded=0;fontSize=12;" parent="c5bg6gpFX1xCMmgN13pe-1" vertex="1">
                    <mxGeometry x="662.5" y="259" width="225" height="20" as="geometry"/>
                </mxCell>
                <mxCell id="P9SVE9yxMBOwugfCIO0s-0" value="Both the Container + Marketing are using React Router - we could integrate the two together &lt;i&gt;extremely easily&lt;/i&gt;, but then we'd have to do a big rewrite if we ever stopped using React Router on either project or swapped versions" style="rounded=0;whiteSpace=wrap;html=1;fontStyle=0;fontSize=12;" parent="c5bg6gpFX1xCMmgN13pe-1" vertex="1">
                    <mxGeometry x="540" y="380" width="470" height="60" as="geometry"/>
                </mxCell>
            </root>
        </mxGraphModel>
    </diagram>
    <diagram name="06 - paths" id="NO57c8XiQjgDWS00QL4N">
        <mxGraphModel dx="1542" dy="648" grid="1" gridSize="10" guides="1" tooltips="1" connect="1" arrows="1" fold="1" page="1" pageScale="1" pageWidth="1920" pageHeight="1200" math="0" shadow="0">
            <root>
                <mxCell id="CqYWk8bgvy2fCQxMxT-h-0"/>
                <mxCell id="CqYWk8bgvy2fCQxMxT-h-1" parent="CqYWk8bgvy2fCQxMxT-h-0"/>
                <mxCell id="CqYWk8bgvy2fCQxMxT-h-2" value="Paths won't be known between different subapps until runtime" style="rounded=0;whiteSpace=wrap;html=1;fontStyle=1;fillColor=#dae8fc;strokeColor=#6c8ebf;fontSize=18;" parent="CqYWk8bgvy2fCQxMxT-h-1" vertex="1">
                    <mxGeometry x="540" y="280" width="470" height="60" as="geometry"/>
                </mxCell>
                <mxCell id="CqYWk8bgvy2fCQxMxT-h-3" value="Inflexible Requirement #4" style="text;html=1;strokeColor=none;fillColor=none;align=center;verticalAlign=middle;whiteSpace=wrap;rounded=0;fontSize=12;" parent="CqYWk8bgvy2fCQxMxT-h-1" vertex="1">
                    <mxGeometry x="662.5" y="259" width="225" height="20" as="geometry"/>
                </mxCell>
                <mxCell id="_p1NyV2SK9aHM8UnjfIj-0" value="&lt;i style=&quot;font-size: 16px;&quot;&gt;Note&lt;/i&gt;: we are not going to implement this" style="rounded=0;whiteSpace=wrap;html=1;fontSize=16;fillColor=#f8cecc;strokeColor=#b85450;" parent="CqYWk8bgvy2fCQxMxT-h-1" vertex="1">
                    <mxGeometry x="660" y="390" width="227.5" height="60" as="geometry"/>
                </mxCell>
            </root>
        </mxGraphModel>
    </diagram>
    <diagram id="EdAgUBd5bkUybKzezGvs" name="09 - between">
        <mxGraphModel dx="1542" dy="648" grid="1" gridSize="10" guides="1" tooltips="1" connect="1" arrows="1" fold="1" page="1" pageScale="1" pageWidth="1920" pageHeight="1200" math="0" shadow="0">
            <root>
                <mxCell id="peLdns0KkXdP70wytKn5-0"/>
                <mxCell id="peLdns0KkXdP70wytKn5-1" parent="peLdns0KkXdP70wytKn5-0"/>
                <mxCell id="peLdns0KkXdP70wytKn5-2" value="" style="strokeWidth=1;shadow=0;dashed=0;align=center;html=1;shape=mxgraph.mockup.containers.browserWindow;rSize=0;strokeColor=#666666;strokeColor2=#008cff;strokeColor3=#c4c4c4;mainText=,;recursiveResize=0;" parent="peLdns0KkXdP70wytKn5-1" vertex="1">
                    <mxGeometry x="540" y="290" width="370" height="380" as="geometry"/>
                </mxCell>
                <mxCell id="peLdns0KkXdP70wytKn5-3" value="Page 1" style="strokeWidth=1;shadow=0;dashed=0;align=center;html=1;shape=mxgraph.mockup.containers.anchor;fontSize=17;fontColor=#666666;align=left;" parent="peLdns0KkXdP70wytKn5-2" vertex="1">
                    <mxGeometry x="60" y="12" width="110" height="26" as="geometry"/>
                </mxCell>
                <mxCell id="peLdns0KkXdP70wytKn5-4" value="" style="strokeWidth=1;shadow=0;dashed=0;align=center;html=1;shape=mxgraph.mockup.containers.anchor;rSize=0;fontSize=17;fontColor=#666666;align=left;" parent="peLdns0KkXdP70wytKn5-2" vertex="1">
                    <mxGeometry x="130" y="60" width="250" height="26" as="geometry"/>
                </mxCell>
                <mxCell id="peLdns0KkXdP70wytKn5-5" value="" style="rounded=0;whiteSpace=wrap;html=1;" parent="peLdns0KkXdP70wytKn5-2" vertex="1">
                    <mxGeometry y="110" width="370" height="40" as="geometry"/>
                </mxCell>
                <mxCell id="peLdns0KkXdP70wytKn5-6" value="App" style="text;html=1;strokeColor=none;fillColor=none;align=center;verticalAlign=middle;whiteSpace=wrap;rounded=0;" parent="peLdns0KkXdP70wytKn5-2" vertex="1">
                    <mxGeometry x="20" y="120" width="40" height="20" as="geometry"/>
                </mxCell>
                <mxCell id="peLdns0KkXdP70wytKn5-7" value="Login" style="text;html=1;strokeColor=none;fillColor=none;align=center;verticalAlign=middle;whiteSpace=wrap;rounded=0;" parent="peLdns0KkXdP70wytKn5-2" vertex="1">
                    <mxGeometry x="317.5" y="120" width="40" height="20" as="geometry"/>
                </mxCell>
                <mxCell id="peLdns0KkXdP70wytKn5-8" value="Pricing" style="text;html=1;strokeColor=none;fillColor=none;align=center;verticalAlign=middle;whiteSpace=wrap;rounded=0;fontSize=23;" parent="peLdns0KkXdP70wytKn5-2" vertex="1">
                    <mxGeometry x="165" y="180" width="40" height="20" as="geometry"/>
                </mxCell>
                <mxCell id="peLdns0KkXdP70wytKn5-9" value="" style="rounded=0;whiteSpace=wrap;html=1;fontSize=14;" parent="peLdns0KkXdP70wytKn5-2" vertex="1">
                    <mxGeometry x="50" y="220" width="120" height="100" as="geometry"/>
                </mxCell>
                <mxCell id="peLdns0KkXdP70wytKn5-10" value="Free" style="text;html=1;strokeColor=none;fillColor=none;align=center;verticalAlign=middle;whiteSpace=wrap;rounded=0;fontSize=17;" parent="peLdns0KkXdP70wytKn5-2" vertex="1">
                    <mxGeometry x="90" y="230" width="40" height="20" as="geometry"/>
                </mxCell>
                <mxCell id="peLdns0KkXdP70wytKn5-11" value="Sign Up" style="rounded=1;whiteSpace=wrap;html=1;fontSize=14;" parent="peLdns0KkXdP70wytKn5-2" vertex="1">
                    <mxGeometry x="62.5" y="280" width="95" height="30" as="geometry"/>
                </mxCell>
                <mxCell id="peLdns0KkXdP70wytKn5-12" value="" style="rounded=0;whiteSpace=wrap;html=1;fontSize=14;" parent="peLdns0KkXdP70wytKn5-2" vertex="1">
                    <mxGeometry x="205" y="220" width="120" height="100" as="geometry"/>
                </mxCell>
                <mxCell id="peLdns0KkXdP70wytKn5-13" value="$30/month" style="text;html=1;strokeColor=none;fillColor=none;align=center;verticalAlign=middle;whiteSpace=wrap;rounded=0;fontSize=17;" parent="peLdns0KkXdP70wytKn5-2" vertex="1">
                    <mxGeometry x="245" y="230" width="40" height="20" as="geometry"/>
                </mxCell>
                <mxCell id="peLdns0KkXdP70wytKn5-14" value="Sign Up" style="rounded=1;whiteSpace=wrap;html=1;fontSize=14;" parent="peLdns0KkXdP70wytKn5-2" vertex="1">
                    <mxGeometry x="217.5" y="280" width="95" height="30" as="geometry"/>
                </mxCell>
                <mxCell id="peLdns0KkXdP70wytKn5-15" value="app.com/pricing" style="text;html=1;strokeColor=none;fillColor=none;align=left;verticalAlign=middle;whiteSpace=wrap;rounded=0;fontSize=14;fontStyle=1" parent="peLdns0KkXdP70wytKn5-2" vertex="1">
                    <mxGeometry x="130" y="63" width="150" height="20" as="geometry"/>
                </mxCell>
                <mxCell id="peLdns0KkXdP70wytKn5-16" value="" style="strokeWidth=1;shadow=0;dashed=0;align=center;html=1;shape=mxgraph.mockup.containers.browserWindow;rSize=0;strokeColor=#666666;strokeColor2=#008cff;strokeColor3=#c4c4c4;mainText=,;recursiveResize=0;" parent="peLdns0KkXdP70wytKn5-1" vertex="1">
                    <mxGeometry x="1200" y="290" width="370" height="380" as="geometry"/>
                </mxCell>
                <mxCell id="peLdns0KkXdP70wytKn5-17" value="Page 1" style="strokeWidth=1;shadow=0;dashed=0;align=center;html=1;shape=mxgraph.mockup.containers.anchor;fontSize=17;fontColor=#666666;align=left;" parent="peLdns0KkXdP70wytKn5-16" vertex="1">
                    <mxGeometry x="60" y="12" width="110" height="26" as="geometry"/>
                </mxCell>
                <mxCell id="peLdns0KkXdP70wytKn5-18" value="" style="strokeWidth=1;shadow=0;dashed=0;align=center;html=1;shape=mxgraph.mockup.containers.anchor;rSize=0;fontSize=17;fontColor=#666666;align=left;" parent="peLdns0KkXdP70wytKn5-16" vertex="1">
                    <mxGeometry x="130" y="60" width="250" height="26" as="geometry"/>
                </mxCell>
                <mxCell id="peLdns0KkXdP70wytKn5-19" value="" style="rounded=0;whiteSpace=wrap;html=1;" parent="peLdns0KkXdP70wytKn5-16" vertex="1">
                    <mxGeometry y="110" width="370" height="40" as="geometry"/>
                </mxCell>
                <mxCell id="peLdns0KkXdP70wytKn5-20" value="App" style="text;html=1;strokeColor=none;fillColor=none;align=center;verticalAlign=middle;whiteSpace=wrap;rounded=0;" parent="peLdns0KkXdP70wytKn5-16" vertex="1">
                    <mxGeometry x="20" y="120" width="40" height="20" as="geometry"/>
                </mxCell>
                <mxCell id="peLdns0KkXdP70wytKn5-21" value="Login" style="text;html=1;strokeColor=none;fillColor=none;align=center;verticalAlign=middle;whiteSpace=wrap;rounded=0;" parent="peLdns0KkXdP70wytKn5-16" vertex="1">
                    <mxGeometry x="317.5" y="120" width="40" height="20" as="geometry"/>
                </mxCell>
                <mxCell id="peLdns0KkXdP70wytKn5-22" value="Sign Up" style="text;html=1;strokeColor=none;fillColor=none;align=center;verticalAlign=middle;whiteSpace=wrap;rounded=0;fontSize=23;" parent="peLdns0KkXdP70wytKn5-16" vertex="1">
                    <mxGeometry x="142.5" y="170" width="85" height="20" as="geometry"/>
                </mxCell>
                <mxCell id="peLdns0KkXdP70wytKn5-23" value="app.com/signup" style="text;html=1;strokeColor=none;fillColor=none;align=left;verticalAlign=middle;whiteSpace=wrap;rounded=0;fontSize=14;fontStyle=1" parent="peLdns0KkXdP70wytKn5-16" vertex="1">
                    <mxGeometry x="130" y="63" width="150" height="20" as="geometry"/>
                </mxCell>
                <mxCell id="peLdns0KkXdP70wytKn5-24" value="&lt;i style=&quot;font-size: 11px;&quot;&gt;Enter Email&lt;/i&gt;" style="rounded=0;whiteSpace=wrap;html=1;fontSize=11;align=left;spacingLeft=10;fontColor=#919191;" parent="peLdns0KkXdP70wytKn5-16" vertex="1">
                    <mxGeometry x="89" y="210" width="192" height="25" as="geometry"/>
                </mxCell>
                <mxCell id="peLdns0KkXdP70wytKn5-25" value="&lt;i style=&quot;font-size: 11px&quot;&gt;Enter Password&lt;/i&gt;" style="rounded=0;whiteSpace=wrap;html=1;fontSize=11;align=left;spacingLeft=10;fontColor=#919191;" parent="peLdns0KkXdP70wytKn5-16" vertex="1">
                    <mxGeometry x="88" y="245" width="192" height="25" as="geometry"/>
                </mxCell>
                <mxCell id="peLdns0KkXdP70wytKn5-26" value="Sign Up" style="rounded=1;whiteSpace=wrap;html=1;fontSize=11;align=center;" parent="peLdns0KkXdP70wytKn5-16" vertex="1">
                    <mxGeometry x="124" y="280" width="120" height="30" as="geometry"/>
                </mxCell>
                <mxCell id="peLdns0KkXdP70wytKn5-27" value="Pricing Page" style="rounded=0;whiteSpace=wrap;html=1;fontSize=23;align=center;fillColor=#dae8fc;strokeColor=#6c8ebf;fontStyle=1" parent="peLdns0KkXdP70wytKn5-1" vertex="1">
                    <mxGeometry x="620" y="230" width="210" height="50" as="geometry"/>
                </mxCell>
                <mxCell id="peLdns0KkXdP70wytKn5-28" value="Sign Up Page" style="rounded=0;whiteSpace=wrap;html=1;fontSize=23;align=center;fillColor=#d5e8d4;strokeColor=#82b366;fontStyle=1" parent="peLdns0KkXdP70wytKn5-1" vertex="1">
                    <mxGeometry x="1280" y="230" width="210" height="50" as="geometry"/>
                </mxCell>
                <mxCell id="peLdns0KkXdP70wytKn5-29" style="edgeStyle=orthogonalEdgeStyle;rounded=0;orthogonalLoop=1;jettySize=auto;html=1;exitX=1;exitY=0.5;exitDx=0;exitDy=0;entryX=0.003;entryY=0.2;entryDx=0;entryDy=0;entryPerimeter=0;strokeColor=#000000;strokeWidth=7;fontSize=29;" parent="peLdns0KkXdP70wytKn5-1" source="peLdns0KkXdP70wytKn5-14" target="peLdns0KkXdP70wytKn5-16" edge="1">
                    <mxGeometry relative="1" as="geometry">
                        <Array as="points">
                            <mxPoint x="940" y="585"/>
                            <mxPoint x="940" y="366"/>
                        </Array>
                    </mxGeometry>
                </mxCell>
                <mxCell id="peLdns0KkXdP70wytKn5-30" value="Clicking 'Sign Up' in the Marketing App needs to navigate a user to exactly /auth/signup" style="rounded=0;whiteSpace=wrap;html=1;fontSize=22;fillColor=#fff2cc;strokeColor=#d6b656;" parent="peLdns0KkXdP70wytKn5-1" vertex="1">
                    <mxGeometry x="950" y="400" width="230" height="160" as="geometry"/>
                </mxCell>
                <mxCell id="I6Gx_zj7zDfIWnnePiNV-0" value="&lt;b&gt;This is what we are going to do, but maybe it isn't the best option&lt;/b&gt;" style="rounded=0;whiteSpace=wrap;html=1;fontSize=22;fillColor=#f8cecc;strokeColor=#b85450;" parent="peLdns0KkXdP70wytKn5-1" vertex="1">
                    <mxGeometry x="867.5" y="690" width="395" height="80" as="geometry"/>
                </mxCell>
            </root>
        </mxGraphModel>
    </diagram>
    <diagram name="10 - routes" id="fv2yobxdwZOB6T9ohkqX">
        <mxGraphModel dx="1542" dy="648" grid="1" gridSize="10" guides="1" tooltips="1" connect="1" arrows="1" fold="1" page="1" pageScale="1" pageWidth="1920" pageHeight="1200" math="0" shadow="0">
            <root>
                <mxCell id="kAtPeG5pQws6Y8JLXOqa-0"/>
                <mxCell id="kAtPeG5pQws6Y8JLXOqa-1" parent="kAtPeG5pQws6Y8JLXOqa-0"/>
                <mxCell id="kAtPeG5pQws6Y8JLXOqa-2" value="" style="strokeWidth=1;shadow=0;dashed=0;align=center;html=1;shape=mxgraph.mockup.containers.browserWindow;rSize=0;strokeColor=#666666;strokeColor2=#008cff;strokeColor3=#c4c4c4;mainText=,;recursiveResize=0;" parent="kAtPeG5pQws6Y8JLXOqa-1" vertex="1">
                    <mxGeometry x="550" y="510" width="370" height="330" as="geometry"/>
                </mxCell>
                <mxCell id="kAtPeG5pQws6Y8JLXOqa-3" value="Page 1" style="strokeWidth=1;shadow=0;dashed=0;align=center;html=1;shape=mxgraph.mockup.containers.anchor;fontSize=17;fontColor=#666666;align=left;" parent="kAtPeG5pQws6Y8JLXOqa-2" vertex="1">
                    <mxGeometry x="60" y="12" width="110" height="26" as="geometry"/>
                </mxCell>
                <mxCell id="kAtPeG5pQws6Y8JLXOqa-4" value="" style="strokeWidth=1;shadow=0;dashed=0;align=center;html=1;shape=mxgraph.mockup.containers.anchor;rSize=0;fontSize=17;fontColor=#666666;align=left;" parent="kAtPeG5pQws6Y8JLXOqa-2" vertex="1">
                    <mxGeometry x="130" y="60" width="250" height="26" as="geometry"/>
                </mxCell>
                <mxCell id="kAtPeG5pQws6Y8JLXOqa-5" value="" style="rounded=0;whiteSpace=wrap;html=1;" parent="kAtPeG5pQws6Y8JLXOqa-2" vertex="1">
                    <mxGeometry y="110" width="370" height="40" as="geometry"/>
                </mxCell>
                <mxCell id="kAtPeG5pQws6Y8JLXOqa-6" value="App" style="text;html=1;strokeColor=none;fillColor=none;align=center;verticalAlign=middle;whiteSpace=wrap;rounded=0;" parent="kAtPeG5pQws6Y8JLXOqa-2" vertex="1">
                    <mxGeometry x="20" y="120" width="40" height="20" as="geometry"/>
                </mxCell>
                <mxCell id="kAtPeG5pQws6Y8JLXOqa-7" value="Login" style="text;html=1;strokeColor=none;fillColor=none;align=center;verticalAlign=middle;whiteSpace=wrap;rounded=0;" parent="kAtPeG5pQws6Y8JLXOqa-2" vertex="1">
                    <mxGeometry x="317.5" y="120" width="40" height="20" as="geometry"/>
                </mxCell>
                <mxCell id="kAtPeG5pQws6Y8JLXOqa-8" value="Pricing" style="text;html=1;strokeColor=none;fillColor=none;align=center;verticalAlign=middle;whiteSpace=wrap;rounded=0;fontSize=23;" parent="kAtPeG5pQws6Y8JLXOqa-2" vertex="1">
                    <mxGeometry x="165" y="180" width="40" height="20" as="geometry"/>
                </mxCell>
                <mxCell id="kAtPeG5pQws6Y8JLXOqa-9" value="" style="rounded=0;whiteSpace=wrap;html=1;fontSize=14;" parent="kAtPeG5pQws6Y8JLXOqa-2" vertex="1">
                    <mxGeometry x="50" y="220" width="120" height="100" as="geometry"/>
                </mxCell>
                <mxCell id="kAtPeG5pQws6Y8JLXOqa-10" value="Free" style="text;html=1;strokeColor=none;fillColor=none;align=center;verticalAlign=middle;whiteSpace=wrap;rounded=0;fontSize=17;" parent="kAtPeG5pQws6Y8JLXOqa-2" vertex="1">
                    <mxGeometry x="90" y="230" width="40" height="20" as="geometry"/>
                </mxCell>
                <mxCell id="kAtPeG5pQws6Y8JLXOqa-11" value="Sign Up" style="rounded=1;whiteSpace=wrap;html=1;fontSize=14;" parent="kAtPeG5pQws6Y8JLXOqa-2" vertex="1">
                    <mxGeometry x="62.5" y="280" width="95" height="30" as="geometry"/>
                </mxCell>
                <mxCell id="kAtPeG5pQws6Y8JLXOqa-12" value="" style="rounded=0;whiteSpace=wrap;html=1;fontSize=14;" parent="kAtPeG5pQws6Y8JLXOqa-2" vertex="1">
                    <mxGeometry x="205" y="220" width="120" height="100" as="geometry"/>
                </mxCell>
                <mxCell id="kAtPeG5pQws6Y8JLXOqa-13" value="$30/month" style="text;html=1;strokeColor=none;fillColor=none;align=center;verticalAlign=middle;whiteSpace=wrap;rounded=0;fontSize=17;" parent="kAtPeG5pQws6Y8JLXOqa-2" vertex="1">
                    <mxGeometry x="245" y="230" width="40" height="20" as="geometry"/>
                </mxCell>
                <mxCell id="kAtPeG5pQws6Y8JLXOqa-14" value="Sign Up" style="rounded=1;whiteSpace=wrap;html=1;fontSize=14;" parent="kAtPeG5pQws6Y8JLXOqa-2" vertex="1">
                    <mxGeometry x="217.5" y="280" width="95" height="30" as="geometry"/>
                </mxCell>
                <mxCell id="kAtPeG5pQws6Y8JLXOqa-15" value="app.com/pricing" style="text;html=1;strokeColor=none;fillColor=none;align=left;verticalAlign=middle;whiteSpace=wrap;rounded=0;fontSize=14;fontStyle=1" parent="kAtPeG5pQws6Y8JLXOqa-2" vertex="1">
                    <mxGeometry x="130" y="63" width="150" height="20" as="geometry"/>
                </mxCell>
                <mxCell id="kAtPeG5pQws6Y8JLXOqa-16" value="" style="strokeWidth=1;shadow=0;dashed=0;align=center;html=1;shape=mxgraph.mockup.containers.browserWindow;rSize=0;strokeColor=#666666;strokeColor2=#008cff;strokeColor3=#c4c4c4;mainText=,;recursiveResize=0;" parent="kAtPeG5pQws6Y8JLXOqa-1" vertex="1">
                    <mxGeometry x="1050" y="510" width="370" height="330" as="geometry"/>
                </mxCell>
                <mxCell id="kAtPeG5pQws6Y8JLXOqa-17" value="Page 1" style="strokeWidth=1;shadow=0;dashed=0;align=center;html=1;shape=mxgraph.mockup.containers.anchor;fontSize=17;fontColor=#666666;align=left;" parent="kAtPeG5pQws6Y8JLXOqa-16" vertex="1">
                    <mxGeometry x="60" y="12" width="110" height="26" as="geometry"/>
                </mxCell>
                <mxCell id="kAtPeG5pQws6Y8JLXOqa-18" value="" style="strokeWidth=1;shadow=0;dashed=0;align=center;html=1;shape=mxgraph.mockup.containers.anchor;rSize=0;fontSize=17;fontColor=#666666;align=left;" parent="kAtPeG5pQws6Y8JLXOqa-16" vertex="1">
                    <mxGeometry x="130" y="60" width="250" height="26" as="geometry"/>
                </mxCell>
                <mxCell id="kAtPeG5pQws6Y8JLXOqa-19" value="" style="rounded=0;whiteSpace=wrap;html=1;" parent="kAtPeG5pQws6Y8JLXOqa-16" vertex="1">
                    <mxGeometry y="110" width="370" height="40" as="geometry"/>
                </mxCell>
                <mxCell id="kAtPeG5pQws6Y8JLXOqa-20" value="App" style="text;html=1;strokeColor=none;fillColor=none;align=center;verticalAlign=middle;whiteSpace=wrap;rounded=0;" parent="kAtPeG5pQws6Y8JLXOqa-16" vertex="1">
                    <mxGeometry x="20" y="120" width="40" height="20" as="geometry"/>
                </mxCell>
                <mxCell id="kAtPeG5pQws6Y8JLXOqa-21" value="Login" style="text;html=1;strokeColor=none;fillColor=none;align=center;verticalAlign=middle;whiteSpace=wrap;rounded=0;" parent="kAtPeG5pQws6Y8JLXOqa-16" vertex="1">
                    <mxGeometry x="317.5" y="120" width="40" height="20" as="geometry"/>
                </mxCell>
                <mxCell id="kAtPeG5pQws6Y8JLXOqa-22" value="Sign Up" style="text;html=1;strokeColor=none;fillColor=none;align=center;verticalAlign=middle;whiteSpace=wrap;rounded=0;fontSize=23;" parent="kAtPeG5pQws6Y8JLXOqa-16" vertex="1">
                    <mxGeometry x="142.5" y="170" width="85" height="20" as="geometry"/>
                </mxCell>
                <mxCell id="kAtPeG5pQws6Y8JLXOqa-23" value="app.com/sign-me-up" style="text;html=1;strokeColor=none;fillColor=none;align=left;verticalAlign=middle;whiteSpace=wrap;rounded=0;fontSize=14;fontStyle=1" parent="kAtPeG5pQws6Y8JLXOqa-16" vertex="1">
                    <mxGeometry x="130" y="63" width="150" height="20" as="geometry"/>
                </mxCell>
                <mxCell id="kAtPeG5pQws6Y8JLXOqa-24" value="&lt;i style=&quot;font-size: 11px;&quot;&gt;Enter Email&lt;/i&gt;" style="rounded=0;whiteSpace=wrap;html=1;fontSize=11;align=left;spacingLeft=10;fontColor=#919191;" parent="kAtPeG5pQws6Y8JLXOqa-16" vertex="1">
                    <mxGeometry x="89" y="210" width="192" height="25" as="geometry"/>
                </mxCell>
                <mxCell id="kAtPeG5pQws6Y8JLXOqa-25" value="&lt;i style=&quot;font-size: 11px&quot;&gt;Enter Password&lt;/i&gt;" style="rounded=0;whiteSpace=wrap;html=1;fontSize=11;align=left;spacingLeft=10;fontColor=#919191;" parent="kAtPeG5pQws6Y8JLXOqa-16" vertex="1">
                    <mxGeometry x="88" y="245" width="192" height="25" as="geometry"/>
                </mxCell>
                <mxCell id="kAtPeG5pQws6Y8JLXOqa-26" value="Sign Up" style="rounded=1;whiteSpace=wrap;html=1;fontSize=11;align=center;" parent="kAtPeG5pQws6Y8JLXOqa-16" vertex="1">
                    <mxGeometry x="124" y="280" width="120" height="30" as="geometry"/>
                </mxCell>
                <mxCell id="kAtPeG5pQws6Y8JLXOqa-27" value="Pricing Page" style="rounded=0;whiteSpace=wrap;html=1;fontSize=23;align=center;fillColor=#dae8fc;strokeColor=#6c8ebf;fontStyle=1" parent="kAtPeG5pQws6Y8JLXOqa-1" vertex="1">
                    <mxGeometry x="630" y="450" width="210" height="50" as="geometry"/>
                </mxCell>
                <mxCell id="kAtPeG5pQws6Y8JLXOqa-28" value="Sign Up Page" style="rounded=0;whiteSpace=wrap;html=1;fontSize=23;align=center;fillColor=#d5e8d4;strokeColor=#82b366;fontStyle=1" parent="kAtPeG5pQws6Y8JLXOqa-1" vertex="1">
                    <mxGeometry x="1130" y="450" width="210" height="50" as="geometry"/>
                </mxCell>
                <mxCell id="kAtPeG5pQws6Y8JLXOqa-33" style="edgeStyle=orthogonalEdgeStyle;rounded=0;orthogonalLoop=1;jettySize=auto;html=1;exitX=0.5;exitY=1;exitDx=0;exitDy=0;strokeColor=#000000;strokeWidth=7;fontSize=16;" parent="kAtPeG5pQws6Y8JLXOqa-1" source="kAtPeG5pQws6Y8JLXOqa-32" target="kAtPeG5pQws6Y8JLXOqa-27" edge="1">
                    <mxGeometry relative="1" as="geometry">
                        <Array as="points">
                            <mxPoint x="985" y="330"/>
                            <mxPoint x="735" y="330"/>
                        </Array>
                    </mxGeometry>
                </mxCell>
                <mxCell id="kAtPeG5pQws6Y8JLXOqa-34" style="edgeStyle=orthogonalEdgeStyle;rounded=0;orthogonalLoop=1;jettySize=auto;html=1;exitX=0.5;exitY=1;exitDx=0;exitDy=0;strokeColor=#000000;strokeWidth=7;fontSize=16;" parent="kAtPeG5pQws6Y8JLXOqa-1" source="kAtPeG5pQws6Y8JLXOqa-32" target="kAtPeG5pQws6Y8JLXOqa-28" edge="1">
                    <mxGeometry relative="1" as="geometry">
                        <Array as="points">
                            <mxPoint x="985" y="330"/>
                            <mxPoint x="1235" y="330"/>
                        </Array>
                    </mxGeometry>
                </mxCell>
                <mxCell id="kAtPeG5pQws6Y8JLXOqa-32" value="Container" style="rounded=0;whiteSpace=wrap;html=1;fontSize=23;align=center;fillColor=#e1d5e7;strokeColor=#9673a6;fontStyle=1" parent="kAtPeG5pQws6Y8JLXOqa-1" vertex="1">
                    <mxGeometry x="630" y="260" width="710" height="50" as="geometry"/>
                </mxCell>
                <mxCell id="kAtPeG5pQws6Y8JLXOqa-35" value="{ SIGNUP: '/sign-me-up' }" style="rounded=0;whiteSpace=wrap;html=1;fontSize=16;" parent="kAtPeG5pQws6Y8JLXOqa-1" vertex="1">
                    <mxGeometry x="737" y="380" width="253" height="30" as="geometry"/>
                </mxCell>
                <mxCell id="kAtPeG5pQws6Y8JLXOqa-36" value="&lt;b&gt;External Route Config&lt;/b&gt;" style="rounded=0;whiteSpace=wrap;html=1;fontSize=16;" parent="kAtPeG5pQws6Y8JLXOqa-1" vertex="1">
                    <mxGeometry x="737" y="350" width="253" height="30" as="geometry"/>
                </mxCell>
            </root>
        </mxGraphModel>
    </diagram>
    <diagram name="11 - route" id="RWpaMmrw1hkFJrVh8rBg">
        <mxGraphModel dx="1542" dy="648" grid="1" gridSize="10" guides="1" tooltips="1" connect="1" arrows="1" fold="1" page="1" pageScale="1" pageWidth="1920" pageHeight="1200" math="0" shadow="0">
            <root>
                <mxCell id="pQYWPnDBKz6A8wt0CQ-s-0"/>
                <mxCell id="pQYWPnDBKz6A8wt0CQ-s-1" parent="pQYWPnDBKz6A8wt0CQ-s-0"/>
                <mxCell id="pQYWPnDBKz6A8wt0CQ-s-2" value="" style="strokeWidth=1;shadow=0;dashed=0;align=center;html=1;shape=mxgraph.mockup.containers.browserWindow;rSize=0;strokeColor=#666666;strokeColor2=#008cff;strokeColor3=#c4c4c4;mainText=,;recursiveResize=0;" parent="pQYWPnDBKz6A8wt0CQ-s-1" vertex="1">
                    <mxGeometry x="550" y="510" width="370" height="330" as="geometry"/>
                </mxCell>
                <mxCell id="pQYWPnDBKz6A8wt0CQ-s-3" value="Page 1" style="strokeWidth=1;shadow=0;dashed=0;align=center;html=1;shape=mxgraph.mockup.containers.anchor;fontSize=17;fontColor=#666666;align=left;" parent="pQYWPnDBKz6A8wt0CQ-s-2" vertex="1">
                    <mxGeometry x="60" y="12" width="110" height="26" as="geometry"/>
                </mxCell>
                <mxCell id="pQYWPnDBKz6A8wt0CQ-s-4" value="" style="strokeWidth=1;shadow=0;dashed=0;align=center;html=1;shape=mxgraph.mockup.containers.anchor;rSize=0;fontSize=17;fontColor=#666666;align=left;" parent="pQYWPnDBKz6A8wt0CQ-s-2" vertex="1">
                    <mxGeometry x="130" y="60" width="250" height="26" as="geometry"/>
                </mxCell>
                <mxCell id="pQYWPnDBKz6A8wt0CQ-s-5" value="" style="rounded=0;whiteSpace=wrap;html=1;" parent="pQYWPnDBKz6A8wt0CQ-s-2" vertex="1">
                    <mxGeometry y="110" width="370" height="40" as="geometry"/>
                </mxCell>
                <mxCell id="pQYWPnDBKz6A8wt0CQ-s-6" value="App" style="text;html=1;strokeColor=none;fillColor=none;align=center;verticalAlign=middle;whiteSpace=wrap;rounded=0;" parent="pQYWPnDBKz6A8wt0CQ-s-2" vertex="1">
                    <mxGeometry x="20" y="120" width="40" height="20" as="geometry"/>
                </mxCell>
                <mxCell id="pQYWPnDBKz6A8wt0CQ-s-7" value="Login" style="text;html=1;strokeColor=none;fillColor=none;align=center;verticalAlign=middle;whiteSpace=wrap;rounded=0;" parent="pQYWPnDBKz6A8wt0CQ-s-2" vertex="1">
                    <mxGeometry x="317.5" y="120" width="40" height="20" as="geometry"/>
                </mxCell>
                <mxCell id="pQYWPnDBKz6A8wt0CQ-s-8" value="Pricing" style="text;html=1;strokeColor=none;fillColor=none;align=center;verticalAlign=middle;whiteSpace=wrap;rounded=0;fontSize=23;" parent="pQYWPnDBKz6A8wt0CQ-s-2" vertex="1">
                    <mxGeometry x="165" y="180" width="40" height="20" as="geometry"/>
                </mxCell>
                <mxCell id="pQYWPnDBKz6A8wt0CQ-s-9" value="" style="rounded=0;whiteSpace=wrap;html=1;fontSize=14;" parent="pQYWPnDBKz6A8wt0CQ-s-2" vertex="1">
                    <mxGeometry x="50" y="220" width="120" height="100" as="geometry"/>
                </mxCell>
                <mxCell id="pQYWPnDBKz6A8wt0CQ-s-10" value="Free" style="text;html=1;strokeColor=none;fillColor=none;align=center;verticalAlign=middle;whiteSpace=wrap;rounded=0;fontSize=17;" parent="pQYWPnDBKz6A8wt0CQ-s-2" vertex="1">
                    <mxGeometry x="90" y="230" width="40" height="20" as="geometry"/>
                </mxCell>
                <mxCell id="pQYWPnDBKz6A8wt0CQ-s-11" value="Sign Up" style="rounded=1;whiteSpace=wrap;html=1;fontSize=14;" parent="pQYWPnDBKz6A8wt0CQ-s-2" vertex="1">
                    <mxGeometry x="62.5" y="280" width="95" height="30" as="geometry"/>
                </mxCell>
                <mxCell id="pQYWPnDBKz6A8wt0CQ-s-12" value="" style="rounded=0;whiteSpace=wrap;html=1;fontSize=14;" parent="pQYWPnDBKz6A8wt0CQ-s-2" vertex="1">
                    <mxGeometry x="205" y="220" width="120" height="100" as="geometry"/>
                </mxCell>
                <mxCell id="pQYWPnDBKz6A8wt0CQ-s-13" value="$30/month" style="text;html=1;strokeColor=none;fillColor=none;align=center;verticalAlign=middle;whiteSpace=wrap;rounded=0;fontSize=17;" parent="pQYWPnDBKz6A8wt0CQ-s-2" vertex="1">
                    <mxGeometry x="245" y="230" width="40" height="20" as="geometry"/>
                </mxCell>
                <mxCell id="pQYWPnDBKz6A8wt0CQ-s-14" value="Sign Up" style="rounded=1;whiteSpace=wrap;html=1;fontSize=14;" parent="pQYWPnDBKz6A8wt0CQ-s-2" vertex="1">
                    <mxGeometry x="217.5" y="280" width="95" height="30" as="geometry"/>
                </mxCell>
                <mxCell id="pQYWPnDBKz6A8wt0CQ-s-15" value="app.com/pricing" style="text;html=1;strokeColor=none;fillColor=none;align=left;verticalAlign=middle;whiteSpace=wrap;rounded=0;fontSize=14;fontStyle=1" parent="pQYWPnDBKz6A8wt0CQ-s-2" vertex="1">
                    <mxGeometry x="130" y="63" width="150" height="20" as="geometry"/>
                </mxCell>
                <mxCell id="pQYWPnDBKz6A8wt0CQ-s-16" value="" style="strokeWidth=1;shadow=0;dashed=0;align=center;html=1;shape=mxgraph.mockup.containers.browserWindow;rSize=0;strokeColor=#666666;strokeColor2=#008cff;strokeColor3=#c4c4c4;mainText=,;recursiveResize=0;" parent="pQYWPnDBKz6A8wt0CQ-s-1" vertex="1">
                    <mxGeometry x="1050" y="510" width="370" height="330" as="geometry"/>
                </mxCell>
                <mxCell id="pQYWPnDBKz6A8wt0CQ-s-17" value="Page 1" style="strokeWidth=1;shadow=0;dashed=0;align=center;html=1;shape=mxgraph.mockup.containers.anchor;fontSize=17;fontColor=#666666;align=left;" parent="pQYWPnDBKz6A8wt0CQ-s-16" vertex="1">
                    <mxGeometry x="60" y="12" width="110" height="26" as="geometry"/>
                </mxCell>
                <mxCell id="pQYWPnDBKz6A8wt0CQ-s-18" value="" style="strokeWidth=1;shadow=0;dashed=0;align=center;html=1;shape=mxgraph.mockup.containers.anchor;rSize=0;fontSize=17;fontColor=#666666;align=left;" parent="pQYWPnDBKz6A8wt0CQ-s-16" vertex="1">
                    <mxGeometry x="130" y="60" width="250" height="26" as="geometry"/>
                </mxCell>
                <mxCell id="pQYWPnDBKz6A8wt0CQ-s-19" value="" style="rounded=0;whiteSpace=wrap;html=1;" parent="pQYWPnDBKz6A8wt0CQ-s-16" vertex="1">
                    <mxGeometry y="110" width="370" height="40" as="geometry"/>
                </mxCell>
                <mxCell id="pQYWPnDBKz6A8wt0CQ-s-20" value="App" style="text;html=1;strokeColor=none;fillColor=none;align=center;verticalAlign=middle;whiteSpace=wrap;rounded=0;" parent="pQYWPnDBKz6A8wt0CQ-s-16" vertex="1">
                    <mxGeometry x="20" y="120" width="40" height="20" as="geometry"/>
                </mxCell>
                <mxCell id="pQYWPnDBKz6A8wt0CQ-s-21" value="Login" style="text;html=1;strokeColor=none;fillColor=none;align=center;verticalAlign=middle;whiteSpace=wrap;rounded=0;" parent="pQYWPnDBKz6A8wt0CQ-s-16" vertex="1">
                    <mxGeometry x="317.5" y="120" width="40" height="20" as="geometry"/>
                </mxCell>
                <mxCell id="pQYWPnDBKz6A8wt0CQ-s-22" value="Sign Up" style="text;html=1;strokeColor=none;fillColor=none;align=center;verticalAlign=middle;whiteSpace=wrap;rounded=0;fontSize=23;" parent="pQYWPnDBKz6A8wt0CQ-s-16" vertex="1">
                    <mxGeometry x="142.5" y="170" width="85" height="20" as="geometry"/>
                </mxCell>
                <mxCell id="pQYWPnDBKz6A8wt0CQ-s-23" value="app.com/auth/signup" style="text;html=1;strokeColor=none;fillColor=none;align=left;verticalAlign=middle;whiteSpace=wrap;rounded=0;fontSize=14;fontStyle=1" parent="pQYWPnDBKz6A8wt0CQ-s-16" vertex="1">
                    <mxGeometry x="130" y="63" width="150" height="20" as="geometry"/>
                </mxCell>
                <mxCell id="pQYWPnDBKz6A8wt0CQ-s-24" value="&lt;i style=&quot;font-size: 11px;&quot;&gt;Enter Email&lt;/i&gt;" style="rounded=0;whiteSpace=wrap;html=1;fontSize=11;align=left;spacingLeft=10;fontColor=#919191;" parent="pQYWPnDBKz6A8wt0CQ-s-16" vertex="1">
                    <mxGeometry x="89" y="210" width="192" height="25" as="geometry"/>
                </mxCell>
                <mxCell id="pQYWPnDBKz6A8wt0CQ-s-25" value="&lt;i style=&quot;font-size: 11px&quot;&gt;Enter Password&lt;/i&gt;" style="rounded=0;whiteSpace=wrap;html=1;fontSize=11;align=left;spacingLeft=10;fontColor=#919191;" parent="pQYWPnDBKz6A8wt0CQ-s-16" vertex="1">
                    <mxGeometry x="88" y="245" width="192" height="25" as="geometry"/>
                </mxCell>
                <mxCell id="pQYWPnDBKz6A8wt0CQ-s-26" value="Sign Up" style="rounded=1;whiteSpace=wrap;html=1;fontSize=11;align=center;" parent="pQYWPnDBKz6A8wt0CQ-s-16" vertex="1">
                    <mxGeometry x="124" y="280" width="120" height="30" as="geometry"/>
                </mxCell>
                <mxCell id="pQYWPnDBKz6A8wt0CQ-s-27" value="Pricing Page" style="rounded=0;whiteSpace=wrap;html=1;fontSize=23;align=center;fillColor=#dae8fc;strokeColor=#6c8ebf;fontStyle=1" parent="pQYWPnDBKz6A8wt0CQ-s-1" vertex="1">
                    <mxGeometry x="630" y="450" width="210" height="50" as="geometry"/>
                </mxCell>
                <mxCell id="pQYWPnDBKz6A8wt0CQ-s-35" style="edgeStyle=orthogonalEdgeStyle;rounded=0;orthogonalLoop=1;jettySize=auto;html=1;exitX=0.5;exitY=0;exitDx=0;exitDy=0;entryX=0.626;entryY=0.976;entryDx=0;entryDy=0;entryPerimeter=0;strokeColor=#000000;strokeWidth=7;fontSize=16;" parent="pQYWPnDBKz6A8wt0CQ-s-1" source="pQYWPnDBKz6A8wt0CQ-s-28" target="pQYWPnDBKz6A8wt0CQ-s-31" edge="1">
                    <mxGeometry relative="1" as="geometry">
                        <Array as="points">
                            <mxPoint x="1235" y="320"/>
                            <mxPoint x="1074" y="320"/>
                        </Array>
                    </mxGeometry>
                </mxCell>
                <mxCell id="pQYWPnDBKz6A8wt0CQ-s-28" value="Sign Up Page" style="rounded=0;whiteSpace=wrap;html=1;fontSize=23;align=center;fillColor=#d5e8d4;strokeColor=#82b366;fontStyle=1" parent="pQYWPnDBKz6A8wt0CQ-s-1" vertex="1">
                    <mxGeometry x="1130" y="450" width="210" height="50" as="geometry"/>
                </mxCell>
                <mxCell id="pQYWPnDBKz6A8wt0CQ-s-29" style="edgeStyle=orthogonalEdgeStyle;rounded=0;orthogonalLoop=1;jettySize=auto;html=1;exitX=0.5;exitY=1;exitDx=0;exitDy=0;strokeColor=#000000;strokeWidth=7;fontSize=16;" parent="pQYWPnDBKz6A8wt0CQ-s-1" source="pQYWPnDBKz6A8wt0CQ-s-31" target="pQYWPnDBKz6A8wt0CQ-s-27" edge="1">
                    <mxGeometry relative="1" as="geometry">
                        <Array as="points">
                            <mxPoint x="985" y="310"/>
                            <mxPoint x="735" y="310"/>
                        </Array>
                    </mxGeometry>
                </mxCell>
                <mxCell id="pQYWPnDBKz6A8wt0CQ-s-31" value="Container" style="rounded=0;whiteSpace=wrap;html=1;fontSize=23;align=center;fillColor=#e1d5e7;strokeColor=#9673a6;fontStyle=1" parent="pQYWPnDBKz6A8wt0CQ-s-1" vertex="1">
                    <mxGeometry x="630" y="240" width="710" height="50" as="geometry"/>
                </mxCell>
                <mxCell id="pQYWPnDBKz6A8wt0CQ-s-32" value="{ SIGNUP: '/auth/signup' }" style="rounded=0;whiteSpace=wrap;html=1;fontSize=16;" parent="pQYWPnDBKz6A8wt0CQ-s-1" vertex="1">
                    <mxGeometry x="737" y="380" width="253" height="30" as="geometry"/>
                </mxCell>
                <mxCell id="pQYWPnDBKz6A8wt0CQ-s-33" value="&lt;b&gt;External Route Config&lt;/b&gt;" style="rounded=0;whiteSpace=wrap;html=1;fontSize=16;" parent="pQYWPnDBKz6A8wt0CQ-s-1" vertex="1">
                    <mxGeometry x="737" y="350" width="253" height="30" as="geometry"/>
                </mxCell>
                <mxCell id="pQYWPnDBKz6A8wt0CQ-s-37" value="&lt;b&gt;I can handle the SIGNUP task at /auth/signup'&lt;/b&gt;" style="rounded=0;whiteSpace=wrap;html=1;fontSize=16;" parent="pQYWPnDBKz6A8wt0CQ-s-1" vertex="1">
                    <mxGeometry x="1238" y="360" width="253" height="60" as="geometry"/>
                </mxCell>
            </root>
        </mxGraphModel>
    </diagram>
    <diagram id="7U8uMz5PUlPaM_s9TkAx" name="13 - base">
        <mxGraphModel dx="1542" dy="648" grid="1" gridSize="10" guides="1" tooltips="1" connect="1" arrows="1" fold="1" page="1" pageScale="1" pageWidth="1920" pageHeight="1200" math="0" shadow="0">
            <root>
                <mxCell id="8KX6ZYRKezNygbN5rNg0-0"/>
                <mxCell id="8KX6ZYRKezNygbN5rNg0-1" parent="8KX6ZYRKezNygbN5rNg0-0"/>
                <mxCell id="8KX6ZYRKezNygbN5rNg0-2" value="Pages might need to get displayed at routes not known at compile time" style="rounded=0;whiteSpace=wrap;html=1;fontStyle=1;fillColor=#dae8fc;strokeColor=#6c8ebf;fontSize=18;" parent="8KX6ZYRKezNygbN5rNg0-1" vertex="1">
                    <mxGeometry x="540" y="280" width="470" height="60" as="geometry"/>
                </mxCell>
                <mxCell id="8KX6ZYRKezNygbN5rNg0-3" value="Inflexible Requirement #5" style="text;html=1;strokeColor=none;fillColor=none;align=center;verticalAlign=middle;whiteSpace=wrap;rounded=0;fontSize=12;" parent="8KX6ZYRKezNygbN5rNg0-1" vertex="1">
                    <mxGeometry x="662.5" y="259" width="225" height="20" as="geometry"/>
                </mxCell>
                <mxCell id="8KX6ZYRKezNygbN5rNg0-4" value="&lt;i style=&quot;font-size: 16px;&quot;&gt;Note&lt;/i&gt;: we are not going to implement this" style="rounded=0;whiteSpace=wrap;html=1;fontSize=16;fillColor=#f8cecc;strokeColor=#b85450;" parent="8KX6ZYRKezNygbN5rNg0-1" vertex="1">
                    <mxGeometry x="660" y="390" width="227.5" height="60" as="geometry"/>
                </mxCell>
            </root>
        </mxGraphModel>
    </diagram>
    <diagram id="TF9oC6J3pQzQXM-dvNnn" name="14 - base">
        <mxGraphModel dx="1542" dy="648" grid="1" gridSize="10" guides="1" tooltips="1" connect="1" arrows="1" fold="1" page="1" pageScale="1" pageWidth="1920" pageHeight="1200" math="0" shadow="0">
            <root>
                <mxCell id="5wSwz8hixEtxz8igwd2F-0"/>
                <mxCell id="5wSwz8hixEtxz8igwd2F-1" parent="5wSwz8hixEtxz8igwd2F-0"/>
                <mxCell id="-OYtWMY1xkjEOsR6yWpY-0" value="" style="rounded=1;whiteSpace=wrap;html=1;strokeColor=#000000;fontSize=31;fontColor=#000000;" parent="5wSwz8hixEtxz8igwd2F-1" vertex="1">
                    <mxGeometry x="350" y="370" width="590" height="130" as="geometry"/>
                </mxCell>
                <mxCell id="-OYtWMY1xkjEOsR6yWpY-1" value="Home Page" style="rounded=0;whiteSpace=wrap;html=1;fontSize=23;align=center;fillColor=#dae8fc;strokeColor=#6c8ebf;fontStyle=0" parent="5wSwz8hixEtxz8igwd2F-1" vertex="1">
                    <mxGeometry x="710" y="380" width="210" height="50" as="geometry"/>
                </mxCell>
                <mxCell id="-OYtWMY1xkjEOsR6yWpY-2" value="Pricing Page" style="rounded=0;whiteSpace=wrap;html=1;fontSize=23;align=center;fillColor=#dae8fc;strokeColor=#6c8ebf;fontStyle=0" parent="5wSwz8hixEtxz8igwd2F-1" vertex="1">
                    <mxGeometry x="710" y="440" width="210" height="50" as="geometry"/>
                </mxCell>
                <mxCell id="-OYtWMY1xkjEOsR6yWpY-3" style="edgeStyle=orthogonalEdgeStyle;rounded=0;orthogonalLoop=1;jettySize=auto;html=1;exitX=1;exitY=0.5;exitDx=0;exitDy=0;fontSize=22;" parent="5wSwz8hixEtxz8igwd2F-1" source="-OYtWMY1xkjEOsR6yWpY-4" target="-OYtWMY1xkjEOsR6yWpY-1" edge="1">
                    <mxGeometry relative="1" as="geometry"/>
                </mxCell>
                <mxCell id="-OYtWMY1xkjEOsR6yWpY-4" value="/" style="rounded=1;whiteSpace=wrap;html=1;fontSize=22;fillColor=#f5f5f5;strokeColor=#666666;fontColor=#333333;" parent="5wSwz8hixEtxz8igwd2F-1" vertex="1">
                    <mxGeometry x="360" y="385" width="290" height="40" as="geometry"/>
                </mxCell>
                <mxCell id="-OYtWMY1xkjEOsR6yWpY-5" style="edgeStyle=orthogonalEdgeStyle;rounded=0;orthogonalLoop=1;jettySize=auto;html=1;exitX=1;exitY=0.5;exitDx=0;exitDy=0;fontSize=22;" parent="5wSwz8hixEtxz8igwd2F-1" source="-OYtWMY1xkjEOsR6yWpY-6" target="-OYtWMY1xkjEOsR6yWpY-2" edge="1">
                    <mxGeometry relative="1" as="geometry"/>
                </mxCell>
                <mxCell id="-OYtWMY1xkjEOsR6yWpY-6" value="/pricing" style="rounded=1;whiteSpace=wrap;html=1;fontSize=22;fillColor=#f5f5f5;strokeColor=#666666;fontColor=#333333;" parent="5wSwz8hixEtxz8igwd2F-1" vertex="1">
                    <mxGeometry x="360" y="445" width="290" height="40" as="geometry"/>
                </mxCell>
            </root>
        </mxGraphModel>
    </diagram>
    <diagram id="89bKlQEnxPK7XGERuSwe" name="15 - boats">
        <mxGraphModel dx="1542" dy="648" grid="1" gridSize="10" guides="1" tooltips="1" connect="1" arrows="1" fold="1" page="1" pageScale="1" pageWidth="1920" pageHeight="1200" math="0" shadow="0">
            <root>
                <mxCell id="upYVDhv243t3zUwfGdNf-0"/>
                <mxCell id="upYVDhv243t3zUwfGdNf-1" parent="upYVDhv243t3zUwfGdNf-0"/>
                <mxCell id="upYVDhv243t3zUwfGdNf-2" value="" style="rounded=1;whiteSpace=wrap;html=1;strokeColor=#000000;fontSize=31;fontColor=#000000;" parent="upYVDhv243t3zUwfGdNf-1" vertex="1">
                    <mxGeometry x="350" y="370" width="590" height="130" as="geometry"/>
                </mxCell>
                <mxCell id="upYVDhv243t3zUwfGdNf-3" value="Marketing Home Page" style="rounded=0;whiteSpace=wrap;html=1;fontSize=23;align=center;fillColor=#dae8fc;strokeColor=#6c8ebf;fontStyle=0" parent="upYVDhv243t3zUwfGdNf-1" vertex="1">
                    <mxGeometry x="710" y="380" width="210" height="50" as="geometry"/>
                </mxCell>
                <mxCell id="upYVDhv243t3zUwfGdNf-4" value="Marketing Pricing Page" style="rounded=0;whiteSpace=wrap;html=1;fontSize=23;align=center;fillColor=#dae8fc;strokeColor=#6c8ebf;fontStyle=0" parent="upYVDhv243t3zUwfGdNf-1" vertex="1">
                    <mxGeometry x="710" y="440" width="210" height="50" as="geometry"/>
                </mxCell>
                <mxCell id="upYVDhv243t3zUwfGdNf-5" style="edgeStyle=orthogonalEdgeStyle;rounded=0;orthogonalLoop=1;jettySize=auto;html=1;exitX=1;exitY=0.5;exitDx=0;exitDy=0;fontSize=22;" parent="upYVDhv243t3zUwfGdNf-1" source="upYVDhv243t3zUwfGdNf-6" target="upYVDhv243t3zUwfGdNf-3" edge="1">
                    <mxGeometry relative="1" as="geometry"/>
                </mxCell>
                <mxCell id="upYVDhv243t3zUwfGdNf-6" value="/" style="rounded=1;whiteSpace=wrap;html=1;fontSize=22;fillColor=#f5f5f5;strokeColor=#666666;fontColor=#333333;" parent="upYVDhv243t3zUwfGdNf-1" vertex="1">
                    <mxGeometry x="360" y="385" width="290" height="40" as="geometry"/>
                </mxCell>
                <mxCell id="upYVDhv243t3zUwfGdNf-7" style="edgeStyle=orthogonalEdgeStyle;rounded=0;orthogonalLoop=1;jettySize=auto;html=1;exitX=1;exitY=0.5;exitDx=0;exitDy=0;fontSize=22;" parent="upYVDhv243t3zUwfGdNf-1" source="upYVDhv243t3zUwfGdNf-8" target="upYVDhv243t3zUwfGdNf-4" edge="1">
                    <mxGeometry relative="1" as="geometry"/>
                </mxCell>
                <mxCell id="upYVDhv243t3zUwfGdNf-8" value="/pricing" style="rounded=1;whiteSpace=wrap;html=1;fontSize=22;fillColor=#f5f5f5;strokeColor=#666666;fontColor=#333333;" parent="upYVDhv243t3zUwfGdNf-1" vertex="1">
                    <mxGeometry x="360" y="445" width="290" height="40" as="geometry"/>
                </mxCell>
                <mxCell id="upYVDhv243t3zUwfGdNf-9" value="" style="rounded=1;whiteSpace=wrap;html=1;strokeColor=#000000;fontSize=31;fontColor=#000000;" parent="upYVDhv243t3zUwfGdNf-1" vertex="1">
                    <mxGeometry x="350" y="610" width="590" height="130" as="geometry"/>
                </mxCell>
                <mxCell id="upYVDhv243t3zUwfGdNf-10" value="Boat Home Page" style="rounded=0;whiteSpace=wrap;html=1;fontSize=23;align=center;fillColor=#ffe6cc;strokeColor=#d79b00;fontStyle=0" parent="upYVDhv243t3zUwfGdNf-1" vertex="1">
                    <mxGeometry x="710" y="620" width="210" height="50" as="geometry"/>
                </mxCell>
                <mxCell id="upYVDhv243t3zUwfGdNf-11" value="Boat Pricing Page" style="rounded=0;whiteSpace=wrap;html=1;fontSize=23;align=center;fillColor=#ffe6cc;strokeColor=#d79b00;fontStyle=0" parent="upYVDhv243t3zUwfGdNf-1" vertex="1">
                    <mxGeometry x="710" y="680" width="210" height="50" as="geometry"/>
                </mxCell>
                <mxCell id="upYVDhv243t3zUwfGdNf-12" style="edgeStyle=orthogonalEdgeStyle;rounded=0;orthogonalLoop=1;jettySize=auto;html=1;exitX=1;exitY=0.5;exitDx=0;exitDy=0;fontSize=22;" parent="upYVDhv243t3zUwfGdNf-1" source="upYVDhv243t3zUwfGdNf-13" target="upYVDhv243t3zUwfGdNf-10" edge="1">
                    <mxGeometry relative="1" as="geometry"/>
                </mxCell>
                <mxCell id="upYVDhv243t3zUwfGdNf-13" value="???" style="rounded=1;whiteSpace=wrap;html=1;fontSize=22;fillColor=#f5f5f5;strokeColor=#666666;fontColor=#333333;" parent="upYVDhv243t3zUwfGdNf-1" vertex="1">
                    <mxGeometry x="360" y="625" width="290" height="40" as="geometry"/>
                </mxCell>
                <mxCell id="upYVDhv243t3zUwfGdNf-14" style="edgeStyle=orthogonalEdgeStyle;rounded=0;orthogonalLoop=1;jettySize=auto;html=1;exitX=1;exitY=0.5;exitDx=0;exitDy=0;fontSize=22;" parent="upYVDhv243t3zUwfGdNf-1" source="upYVDhv243t3zUwfGdNf-15" target="upYVDhv243t3zUwfGdNf-11" edge="1">
                    <mxGeometry relative="1" as="geometry"/>
                </mxCell>
                <mxCell id="upYVDhv243t3zUwfGdNf-15" value="???" style="rounded=1;whiteSpace=wrap;html=1;fontSize=22;fillColor=#f5f5f5;strokeColor=#666666;fontColor=#333333;" parent="upYVDhv243t3zUwfGdNf-1" vertex="1">
                    <mxGeometry x="360" y="685" width="290" height="40" as="geometry"/>
                </mxCell>
                <mxCell id="upYVDhv243t3zUwfGdNf-18" value="What URLs should we use for the new pages?" style="rounded=0;whiteSpace=wrap;html=1;strokeColor=#b85450;fontSize=18;fillColor=#f8cecc;fontStyle=1" parent="upYVDhv243t3zUwfGdNf-1" vertex="1">
                    <mxGeometry x="441.72" y="520" width="406.56" height="70" as="geometry"/>
                </mxCell>
            </root>
        </mxGraphModel>
    </diagram>
    <diagram name="16 - routes" id="CpQyO362cMjTGvPKx1b6">
        <mxGraphModel dx="1542" dy="648" grid="1" gridSize="10" guides="1" tooltips="1" connect="1" arrows="1" fold="1" page="1" pageScale="1" pageWidth="1920" pageHeight="1200" math="0" shadow="0">
            <root>
                <mxCell id="jcoVv8Dx_QXsIVNjiUiY-0"/>
                <mxCell id="jcoVv8Dx_QXsIVNjiUiY-1" parent="jcoVv8Dx_QXsIVNjiUiY-0"/>
                <mxCell id="jcoVv8Dx_QXsIVNjiUiY-17" value="" style="rounded=1;whiteSpace=wrap;html=1;strokeColor=#000000;fontSize=31;fontColor=#000000;" parent="jcoVv8Dx_QXsIVNjiUiY-1" vertex="1">
                    <mxGeometry x="360" y="380" width="590" height="130" as="geometry"/>
                </mxCell>
                <mxCell id="jcoVv8Dx_QXsIVNjiUiY-18" value="Marketing Home Page" style="rounded=0;whiteSpace=wrap;html=1;fontSize=23;align=center;fillColor=#dae8fc;strokeColor=#6c8ebf;fontStyle=0" parent="jcoVv8Dx_QXsIVNjiUiY-1" vertex="1">
                    <mxGeometry x="720" y="390" width="210" height="50" as="geometry"/>
                </mxCell>
                <mxCell id="jcoVv8Dx_QXsIVNjiUiY-19" value="Marketing Pricing Page" style="rounded=0;whiteSpace=wrap;html=1;fontSize=23;align=center;fillColor=#dae8fc;strokeColor=#6c8ebf;fontStyle=0" parent="jcoVv8Dx_QXsIVNjiUiY-1" vertex="1">
                    <mxGeometry x="720" y="450" width="210" height="50" as="geometry"/>
                </mxCell>
                <mxCell id="jcoVv8Dx_QXsIVNjiUiY-20" style="edgeStyle=orthogonalEdgeStyle;rounded=0;orthogonalLoop=1;jettySize=auto;html=1;exitX=1;exitY=0.5;exitDx=0;exitDy=0;fontSize=22;" parent="jcoVv8Dx_QXsIVNjiUiY-1" source="jcoVv8Dx_QXsIVNjiUiY-21" target="jcoVv8Dx_QXsIVNjiUiY-18" edge="1">
                    <mxGeometry relative="1" as="geometry"/>
                </mxCell>
                <mxCell id="jcoVv8Dx_QXsIVNjiUiY-21" value="/" style="rounded=1;whiteSpace=wrap;html=1;fontSize=22;fillColor=#f5f5f5;strokeColor=#666666;fontColor=#333333;" parent="jcoVv8Dx_QXsIVNjiUiY-1" vertex="1">
                    <mxGeometry x="370" y="395" width="290" height="40" as="geometry"/>
                </mxCell>
                <mxCell id="jcoVv8Dx_QXsIVNjiUiY-22" style="edgeStyle=orthogonalEdgeStyle;rounded=0;orthogonalLoop=1;jettySize=auto;html=1;exitX=1;exitY=0.5;exitDx=0;exitDy=0;fontSize=22;" parent="jcoVv8Dx_QXsIVNjiUiY-1" source="jcoVv8Dx_QXsIVNjiUiY-23" target="jcoVv8Dx_QXsIVNjiUiY-19" edge="1">
                    <mxGeometry relative="1" as="geometry"/>
                </mxCell>
                <mxCell id="jcoVv8Dx_QXsIVNjiUiY-23" value="/pricing" style="rounded=1;whiteSpace=wrap;html=1;fontSize=22;fillColor=#f5f5f5;strokeColor=#666666;fontColor=#333333;" parent="jcoVv8Dx_QXsIVNjiUiY-1" vertex="1">
                    <mxGeometry x="370" y="455" width="290" height="40" as="geometry"/>
                </mxCell>
                <mxCell id="jcoVv8Dx_QXsIVNjiUiY-24" value="" style="rounded=1;whiteSpace=wrap;html=1;strokeColor=#000000;fontSize=31;fontColor=#000000;" parent="jcoVv8Dx_QXsIVNjiUiY-1" vertex="1">
                    <mxGeometry x="360" y="620" width="590" height="130" as="geometry"/>
                </mxCell>
                <mxCell id="jcoVv8Dx_QXsIVNjiUiY-25" value="Boat Home Page" style="rounded=0;whiteSpace=wrap;html=1;fontSize=23;align=center;fillColor=#ffe6cc;strokeColor=#d79b00;fontStyle=0" parent="jcoVv8Dx_QXsIVNjiUiY-1" vertex="1">
                    <mxGeometry x="720" y="630" width="210" height="50" as="geometry"/>
                </mxCell>
                <mxCell id="jcoVv8Dx_QXsIVNjiUiY-26" value="Boat Pricing Page" style="rounded=0;whiteSpace=wrap;html=1;fontSize=23;align=center;fillColor=#ffe6cc;strokeColor=#d79b00;fontStyle=0" parent="jcoVv8Dx_QXsIVNjiUiY-1" vertex="1">
                    <mxGeometry x="720" y="690" width="210" height="50" as="geometry"/>
                </mxCell>
                <mxCell id="jcoVv8Dx_QXsIVNjiUiY-27" style="edgeStyle=orthogonalEdgeStyle;rounded=0;orthogonalLoop=1;jettySize=auto;html=1;exitX=1;exitY=0.5;exitDx=0;exitDy=0;fontSize=22;" parent="jcoVv8Dx_QXsIVNjiUiY-1" source="jcoVv8Dx_QXsIVNjiUiY-28" target="jcoVv8Dx_QXsIVNjiUiY-25" edge="1">
                    <mxGeometry relative="1" as="geometry"/>
                </mxCell>
                <mxCell id="jcoVv8Dx_QXsIVNjiUiY-28" value="/products/boats/" style="rounded=1;whiteSpace=wrap;html=1;fontSize=22;fillColor=#f5f5f5;strokeColor=#666666;fontColor=#333333;" parent="jcoVv8Dx_QXsIVNjiUiY-1" vertex="1">
                    <mxGeometry x="370" y="635" width="290" height="40" as="geometry"/>
                </mxCell>
                <mxCell id="jcoVv8Dx_QXsIVNjiUiY-29" style="edgeStyle=orthogonalEdgeStyle;rounded=0;orthogonalLoop=1;jettySize=auto;html=1;exitX=1;exitY=0.5;exitDx=0;exitDy=0;fontSize=22;" parent="jcoVv8Dx_QXsIVNjiUiY-1" source="jcoVv8Dx_QXsIVNjiUiY-30" target="jcoVv8Dx_QXsIVNjiUiY-26" edge="1">
                    <mxGeometry relative="1" as="geometry"/>
                </mxCell>
                <mxCell id="jcoVv8Dx_QXsIVNjiUiY-30" value="/products/boats/pricing" style="rounded=1;whiteSpace=wrap;html=1;fontSize=22;fillColor=#f5f5f5;strokeColor=#666666;fontColor=#333333;" parent="jcoVv8Dx_QXsIVNjiUiY-1" vertex="1">
                    <mxGeometry x="370" y="695" width="290" height="40" as="geometry"/>
                </mxCell>
                <mxCell id="jcoVv8Dx_QXsIVNjiUiY-31" style="edgeStyle=orthogonalEdgeStyle;rounded=0;orthogonalLoop=1;jettySize=auto;html=1;exitX=0;exitY=0.5;exitDx=0;exitDy=0;entryX=0;entryY=0.5;entryDx=0;entryDy=0;strokeWidth=4;fontSize=18;fontColor=#000000;" parent="jcoVv8Dx_QXsIVNjiUiY-1" source="jcoVv8Dx_QXsIVNjiUiY-33" target="jcoVv8Dx_QXsIVNjiUiY-23" edge="1">
                    <mxGeometry relative="1" as="geometry">
                        <Array as="points">
                            <mxPoint x="330" y="565"/>
                            <mxPoint x="330" y="475"/>
                        </Array>
                    </mxGeometry>
                </mxCell>
                <mxCell id="jcoVv8Dx_QXsIVNjiUiY-32" style="edgeStyle=orthogonalEdgeStyle;rounded=0;orthogonalLoop=1;jettySize=auto;html=1;exitX=0;exitY=0.5;exitDx=0;exitDy=0;entryX=0;entryY=0.5;entryDx=0;entryDy=0;strokeWidth=4;fontSize=18;fontColor=#000000;" parent="jcoVv8Dx_QXsIVNjiUiY-1" source="jcoVv8Dx_QXsIVNjiUiY-33" target="jcoVv8Dx_QXsIVNjiUiY-21" edge="1">
                    <mxGeometry relative="1" as="geometry">
                        <Array as="points">
                            <mxPoint x="330" y="565"/>
                            <mxPoint x="330" y="415"/>
                        </Array>
                    </mxGeometry>
                </mxCell>
                <mxCell id="jcoVv8Dx_QXsIVNjiUiY-33" value="Need to update our dashboard marketing project URL's" style="rounded=0;whiteSpace=wrap;html=1;strokeColor=#b85450;fontSize=18;fillColor=#f8cecc;fontStyle=1" parent="jcoVv8Dx_QXsIVNjiUiY-1" vertex="1">
                    <mxGeometry x="451.72" y="530" width="406.56" height="70" as="geometry"/>
                </mxCell>
            </root>
        </mxGraphModel>
    </diagram>
    <diagram name="17 - container" id="P8NXunrzBqHXXNkp7aO1">
        <mxGraphModel dx="1406" dy="648" grid="1" gridSize="10" guides="1" tooltips="1" connect="1" arrows="1" fold="1" page="1" pageScale="1" pageWidth="1920" pageHeight="1200" math="0" shadow="0">
            <root>
                <mxCell id="oy92q_6LmBPJ2cpiu3h5-0"/>
                <mxCell id="oy92q_6LmBPJ2cpiu3h5-1" parent="oy92q_6LmBPJ2cpiu3h5-0"/>
                <mxCell id="oy92q_6LmBPJ2cpiu3h5-2" value="" style="rounded=1;whiteSpace=wrap;html=1;strokeColor=#000000;fontSize=31;fontColor=#000000;" parent="oy92q_6LmBPJ2cpiu3h5-1" vertex="1">
                    <mxGeometry x="590" y="380" width="590" height="130" as="geometry"/>
                </mxCell>
                <mxCell id="oy92q_6LmBPJ2cpiu3h5-3" value="Dashboard Home Page" style="rounded=0;whiteSpace=wrap;html=1;fontSize=23;align=center;fillColor=#dae8fc;strokeColor=#6c8ebf;fontStyle=0" parent="oy92q_6LmBPJ2cpiu3h5-1" vertex="1">
                    <mxGeometry x="950" y="390" width="210" height="50" as="geometry"/>
                </mxCell>
                <mxCell id="oy92q_6LmBPJ2cpiu3h5-4" value="Dashboard Pricing Page" style="rounded=0;whiteSpace=wrap;html=1;fontSize=23;align=center;fillColor=#dae8fc;strokeColor=#6c8ebf;fontStyle=0" parent="oy92q_6LmBPJ2cpiu3h5-1" vertex="1">
                    <mxGeometry x="950" y="450" width="210" height="50" as="geometry"/>
                </mxCell>
                <mxCell id="oy92q_6LmBPJ2cpiu3h5-5" style="edgeStyle=orthogonalEdgeStyle;rounded=0;orthogonalLoop=1;jettySize=auto;html=1;exitX=1;exitY=0.5;exitDx=0;exitDy=0;fontSize=22;" parent="oy92q_6LmBPJ2cpiu3h5-1" source="oy92q_6LmBPJ2cpiu3h5-6" target="oy92q_6LmBPJ2cpiu3h5-3" edge="1">
                    <mxGeometry relative="1" as="geometry"/>
                </mxCell>
                <mxCell id="oy92q_6LmBPJ2cpiu3h5-6" value="/" style="rounded=1;whiteSpace=wrap;html=1;fontSize=22;fillColor=#f5f5f5;strokeColor=#666666;fontColor=#333333;" parent="oy92q_6LmBPJ2cpiu3h5-1" vertex="1">
                    <mxGeometry x="600" y="395" width="290" height="40" as="geometry"/>
                </mxCell>
                <mxCell id="oy92q_6LmBPJ2cpiu3h5-7" style="edgeStyle=orthogonalEdgeStyle;rounded=0;orthogonalLoop=1;jettySize=auto;html=1;exitX=1;exitY=0.5;exitDx=0;exitDy=0;fontSize=22;" parent="oy92q_6LmBPJ2cpiu3h5-1" source="oy92q_6LmBPJ2cpiu3h5-8" target="oy92q_6LmBPJ2cpiu3h5-4" edge="1">
                    <mxGeometry relative="1" as="geometry"/>
                </mxCell>
                <mxCell id="oy92q_6LmBPJ2cpiu3h5-8" value="/pricing" style="rounded=1;whiteSpace=wrap;html=1;fontSize=22;fillColor=#f5f5f5;strokeColor=#666666;fontColor=#333333;" parent="oy92q_6LmBPJ2cpiu3h5-1" vertex="1">
                    <mxGeometry x="600" y="455" width="290" height="40" as="geometry"/>
                </mxCell>
                <mxCell id="oy92q_6LmBPJ2cpiu3h5-9" value="" style="rounded=1;whiteSpace=wrap;html=1;strokeColor=#000000;fontSize=31;fontColor=#000000;" parent="oy92q_6LmBPJ2cpiu3h5-1" vertex="1">
                    <mxGeometry x="590" y="550" width="590" height="130" as="geometry"/>
                </mxCell>
                <mxCell id="oy92q_6LmBPJ2cpiu3h5-10" value="Boat Home Page" style="rounded=0;whiteSpace=wrap;html=1;fontSize=23;align=center;fillColor=#ffe6cc;strokeColor=#d79b00;fontStyle=0" parent="oy92q_6LmBPJ2cpiu3h5-1" vertex="1">
                    <mxGeometry x="950" y="560" width="210" height="50" as="geometry"/>
                </mxCell>
                <mxCell id="oy92q_6LmBPJ2cpiu3h5-11" value="Boat Pricing Page" style="rounded=0;whiteSpace=wrap;html=1;fontSize=23;align=center;fillColor=#ffe6cc;strokeColor=#d79b00;fontStyle=0" parent="oy92q_6LmBPJ2cpiu3h5-1" vertex="1">
                    <mxGeometry x="950" y="620" width="210" height="50" as="geometry"/>
                </mxCell>
                <mxCell id="oy92q_6LmBPJ2cpiu3h5-12" style="edgeStyle=orthogonalEdgeStyle;rounded=0;orthogonalLoop=1;jettySize=auto;html=1;exitX=1;exitY=0.5;exitDx=0;exitDy=0;fontSize=22;" parent="oy92q_6LmBPJ2cpiu3h5-1" source="oy92q_6LmBPJ2cpiu3h5-13" target="oy92q_6LmBPJ2cpiu3h5-10" edge="1">
                    <mxGeometry relative="1" as="geometry"/>
                </mxCell>
                <mxCell id="oy92q_6LmBPJ2cpiu3h5-13" value="/" style="rounded=1;whiteSpace=wrap;html=1;fontSize=22;fillColor=#f5f5f5;strokeColor=#666666;fontColor=#333333;" parent="oy92q_6LmBPJ2cpiu3h5-1" vertex="1">
                    <mxGeometry x="600" y="565" width="290" height="40" as="geometry"/>
                </mxCell>
                <mxCell id="oy92q_6LmBPJ2cpiu3h5-14" style="edgeStyle=orthogonalEdgeStyle;rounded=0;orthogonalLoop=1;jettySize=auto;html=1;exitX=1;exitY=0.5;exitDx=0;exitDy=0;fontSize=22;" parent="oy92q_6LmBPJ2cpiu3h5-1" source="oy92q_6LmBPJ2cpiu3h5-15" target="oy92q_6LmBPJ2cpiu3h5-11" edge="1">
                    <mxGeometry relative="1" as="geometry"/>
                </mxCell>
                <mxCell id="oy92q_6LmBPJ2cpiu3h5-15" value="/pricing" style="rounded=1;whiteSpace=wrap;html=1;fontSize=22;fillColor=#f5f5f5;strokeColor=#666666;fontColor=#333333;" parent="oy92q_6LmBPJ2cpiu3h5-1" vertex="1">
                    <mxGeometry x="600" y="625" width="290" height="40" as="geometry"/>
                </mxCell>
                <mxCell id="oy92q_6LmBPJ2cpiu3h5-19" value="Base Name" style="rounded=0;whiteSpace=wrap;html=1;fontSize=30;fontStyle=1;fillColor=#e1d5e7;strokeColor=#9673a6;" parent="oy92q_6LmBPJ2cpiu3h5-1" vertex="1">
                    <mxGeometry x="190" y="390" width="300" height="50" as="geometry"/>
                </mxCell>
                <mxCell id="oy92q_6LmBPJ2cpiu3h5-21" style="edgeStyle=orthogonalEdgeStyle;rounded=0;orthogonalLoop=1;jettySize=auto;html=1;exitX=1;exitY=0.5;exitDx=0;exitDy=0;strokeColor=#000000;strokeWidth=7;fontSize=30;" parent="oy92q_6LmBPJ2cpiu3h5-1" source="oy92q_6LmBPJ2cpiu3h5-20" target="oy92q_6LmBPJ2cpiu3h5-2" edge="1">
                    <mxGeometry relative="1" as="geometry"/>
                </mxCell>
                <mxCell id="oy92q_6LmBPJ2cpiu3h5-20" value="&lt;span style=&quot;font-weight: 400&quot;&gt;/products/dashboard&lt;/span&gt;" style="rounded=0;whiteSpace=wrap;html=1;fontSize=30;fontStyle=1;fillColor=#e1d5e7;strokeColor=#9673a6;" parent="oy92q_6LmBPJ2cpiu3h5-1" vertex="1">
                    <mxGeometry x="190" y="440" width="300" height="180" as="geometry"/>
                </mxCell>
                <mxCell id="oy92q_6LmBPJ2cpiu3h5-22" value="" style="strokeWidth=1;shadow=0;dashed=0;align=center;html=1;shape=mxgraph.mockup.containers.browserWindow;rSize=0;strokeColor=#666666;strokeColor2=#008cff;strokeColor3=#c4c4c4;mainText=,;recursiveResize=0;fontSize=30;" parent="oy92q_6LmBPJ2cpiu3h5-1" vertex="1">
                    <mxGeometry x="190" y="130" width="430" height="210" as="geometry"/>
                </mxCell>
                <mxCell id="oy92q_6LmBPJ2cpiu3h5-23" value="Page 1" style="strokeWidth=1;shadow=0;dashed=0;align=center;html=1;shape=mxgraph.mockup.containers.anchor;fontSize=17;fontColor=#666666;align=left;" parent="oy92q_6LmBPJ2cpiu3h5-22" vertex="1">
                    <mxGeometry x="60" y="12" width="110" height="26" as="geometry"/>
                </mxCell>
                <mxCell id="oy92q_6LmBPJ2cpiu3h5-24" value="app.com/products/dashboards/" style="strokeWidth=1;shadow=0;dashed=0;align=center;html=1;shape=mxgraph.mockup.containers.anchor;rSize=0;fontSize=17;fontColor=#666666;align=left;" parent="oy92q_6LmBPJ2cpiu3h5-22" vertex="1">
                    <mxGeometry x="130" y="60" width="250" height="26" as="geometry"/>
                </mxCell>
                <mxCell id="oy92q_6LmBPJ2cpiu3h5-25" value="" style="endArrow=classic;html=1;strokeColor=#000000;strokeWidth=7;fontSize=30;" parent="oy92q_6LmBPJ2cpiu3h5-1" edge="1">
                    <mxGeometry width="50" height="50" relative="1" as="geometry">
                        <mxPoint x="350" y="340" as="sourcePoint"/>
                        <mxPoint x="350" y="390" as="targetPoint"/>
                    </mxGeometry>
                </mxCell>
                <mxCell id="oy92q_6LmBPJ2cpiu3h5-27" value="Marketing App" style="rounded=0;whiteSpace=wrap;html=1;fontSize=30;fontStyle=0" parent="oy92q_6LmBPJ2cpiu3h5-1" vertex="1">
                    <mxGeometry x="735" y="340" width="300" height="40" as="geometry"/>
                </mxCell>
            </root>
        </mxGraphModel>
    </diagram>
</mxfile>